<svg version="1.1" viewBox="0.0 0.0 403.87401574803147 343.5328083989501" fill="none" stroke="none" stroke-linecap="square" stroke-miterlimit="10" xmlns:xlink="http://www.w3.org/1999/xlink" xmlns="http://www.w3.org/2000/svg"><clipPath id="p.0"><path d="m0 0l403.87402 0l0 343.5328l-403.87402 0l0 -343.5328z" clip-rule="nonzero"/></clipPath><g clip-path="url(#p.0)"><path fill="#000000" fill-opacity="0.0" d="m0 0l403.87402 0l0 343.5328l-403.87402 0z" fill-rule="evenodd"/><g filter="url(#shadowFilter-p.1)"><use xlink:href="#p.1" transform="matrix(1.0 0.0 0.0 1.0 0.0 2.0)"/></g><defs><filter id="shadowFilter-p.1" filterUnits="userSpaceOnUse"><feGaussianBlur in="SourceAlpha" stdDeviation="2.0" result="blur"/><feComponentTransfer in="blur" color-interpolation-filters="sRGB"><feFuncR type="linear" slope="0" intercept="0.0"/><feFuncG type="linear" slope="0" intercept="0.0"/><feFuncB type="linear" slope="0" intercept="0.0"/><feFuncA type="linear" slope="0.5" intercept="0"/></feComponentTransfer></filter></defs><g id="p.1"><path fill="#ff7f50" d="m29.433071 190.26247l174.29921 0l0 150.23622l-174.29921 0z" fill-rule="evenodd"/><path stroke="#000000" stroke-width="2.0" stroke-linejoin="round" stroke-linecap="butt" d="m29.433071 190.26247l174.29921 0l0 150.23622l-174.29921 0z" fill-rule="evenodd"/></g><g filter="url(#shadowFilter-p.2)"><use xlink:href="#p.2" transform="matrix(1.0 0.0 0.0 1.0 0.0 2.0)"/></g><defs><filter id="shadowFilter-p.2" filterUnits="userSpaceOnUse"><feGaussianBlur in="SourceAlpha" stdDeviation="2.0" result="blur"/><feComponentTransfer in="blur" color-interpolation-filters="sRGB"><feFuncR type="linear" slope="0" intercept="0.0"/><feFuncG type="linear" slope="0" intercept="0.0"/><feFuncB type="linear" slope="0" intercept="0.0"/><feFuncA type="linear" slope="0.5" intercept="0"/></feComponentTransfer></filter></defs><g id="p.2"><path fill="#000000" fill-opacity="0.0" d="m167.0024 49.834606c-2.0874786 -12.08469 4.7658997 -24.047825 17.651993 -30.813034c12.886093 -6.7652073 29.544998 -7.1460257 42.90773 -0.98085785l0 0c4.733246 -7.0270386 13.396744 -11.878744 23.369843 -13.087507c9.973099 -1.2087624 20.084366 1.3673997 27.275223 6.9492135l0 0c4.0322266 -6.3710523 11.949707 -10.651597 20.942871 -11.322644c8.993164 -0.6710473 17.789185 2.362375 23.266785 8.0238285l0 0c7.284973 -6.7529063 18.875458 -9.596129 29.756256 -7.2994018c10.880768 2.296728 19.097565 9.3209 21.09497 18.033142l0 0c8.924896 1.9178905 16.359161 6.793354 20.382019 13.366741c4.0228577 6.573387 4.239685 14.199867 0.5944519 20.909035l0 0c8.789093 9.011112 10.845215 21.018433 5.401001 31.540977c-5.444214 10.5225525 -17.5708 17.979393 -31.854279 19.58773c-0.10064697 9.8761215 -6.975769 18.938316 -17.97528 23.69355c-10.999512 4.755234 -24.405792 4.4609528 -35.05139 -0.7694168c-4.534546 11.828331 -17.297974 20.531502 -32.77594 22.349403c-15.477997 1.8179016 -30.895767 -3.5753937 -39.592194 -13.849731c-10.659927 5.0641785 -23.45102 6.5230255 -35.487823 4.047455c-12.036789 -2.4755707 -22.305328 -8.677048 -28.489227 -17.205452l0 0c-10.893051 1.0042648 -21.42514 -3.4418945 -26.369278 -11.131874c-4.944153 -7.6899796 -3.2478638 -16.986786 4.2470093 -23.276482l0 0c-9.717407 -4.505638 -14.675827 -13.446373 -12.289642 -22.159943c2.3862 -8.713566 11.576279 -15.225437 22.777954 -16.139915z" fill-rule="evenodd"/><path fill="#000000" fill-opacity="0.0" d="m223.52711 169.01575c0 2.3048096 -1.8684235 4.173233 -4.173233 4.173233c-2.3048096 0 -4.173233 -1.8684235 -4.173233 -4.173233c0 -2.3048096 1.8684235 -4.173233 4.173233 -4.173233c2.3048096 0 4.173233 1.8684235 4.173233 4.173233z" fill-rule="evenodd"/><path fill="#000000" fill-opacity="0.0" d="m230.65761 163.8818c0 4.609619 -3.736847 8.346451 -8.346466 8.346451c-4.609619 0 -8.346451 -3.7368317 -8.346451 -8.346451c0 -4.609619 3.7368317 -8.346451 8.346451 -8.346451c4.609619 0 8.346466 3.7368317 8.346466 8.346451z" fill-rule="evenodd"/><path fill="#000000" fill-opacity="0.0" d="m241.95412 151.51546c0 6.914444 -5.605255 12.519684 -12.519699 12.519684c-6.9144287 0 -12.519684 -5.60524 -12.519684 -12.519684c0 -6.9144287 5.605255 -12.519684 12.519684 -12.519684c6.914444 0 12.519699 5.605255 12.519699 12.519684z" fill-rule="evenodd"/><path fill="#000000" fill-opacity="0.0" d="m171.75565 90.780235l0 0c-5.29805 0.32671356 -10.59552 -0.63778687 -15.181152 -2.7639923m28.575485 33.01155c-2.1304474 0.66807556 -4.363632 1.1128693 -6.6419525 1.3229141m63.873474 13.211197l0 0c-1.6023712 -1.8931122 -2.9439545 -3.9160614 -4.001892 -6.034378m78.00931 -9.013039c-0.23562622 2.2453995 -0.77124023 4.4648285 -1.5979309 6.621254m33.371338 -47.53183l0 0c12.011566 4.6048203 19.591614 14.231911 19.484436 24.74627m26.475159 -51.10271c-1.9452515 3.580288 -4.9148865 6.756321 -8.676086 9.279079m-12.143433 -43.709465l0 0c0.33148193 1.4458294 0.4848938 2.913391 0.45809937 4.3823414m-55.86792 -9.494129l0 0c1.1304932 -2.0217524 2.6276855 -3.9042025 4.4449463 -5.5887384m-46.016937 8.251676l0 0c0.46121216 -1.670783 1.1843262 -3.2898588 2.15271 -4.819932m-50.942184 6.457507l0 0c2.8275452 1.3045406 5.443405 2.8747005 7.7901306 4.6759872m-66.95799 32.074295l0 0c-0.6172333 -1.6091537 -1.0718384 -3.254242 -1.3595581 -4.9198647" fill-rule="evenodd"/><path stroke="#000000" stroke-width="2.0" stroke-linejoin="round" stroke-linecap="butt" d="m167.0024 49.834606c-2.0874786 -12.08469 4.7658997 -24.047825 17.651993 -30.813034c12.886093 -6.7652073 29.544998 -7.1460257 42.90773 -0.98085785l0 0c4.733246 -7.0270386 13.396744 -11.878744 23.369843 -13.087507c9.973099 -1.2087624 20.084366 1.3673997 27.275223 6.9492135l0 0c4.0322266 -6.3710523 11.949707 -10.651597 20.942871 -11.322644c8.993164 -0.6710473 17.789185 2.362375 23.266785 8.0238285l0 0c7.284973 -6.7529063 18.875458 -9.596129 29.756256 -7.2994018c10.880768 2.296728 19.097565 9.3209 21.09497 18.033142l0 0c8.924896 1.9178905 16.359161 6.793354 20.382019 13.366741c4.0228577 6.573387 4.239685 14.199867 0.5944519 20.909035l0 0c8.789093 9.011112 10.845215 21.018433 5.401001 31.540977c-5.444214 10.5225525 -17.5708 17.979393 -31.854279 19.58773c-0.10064697 9.8761215 -6.975769 18.938316 -17.97528 23.69355c-10.999512 4.755234 -24.405792 4.4609528 -35.05139 -0.7694168c-4.534546 11.828331 -17.297974 20.531502 -32.77594 22.349403c-15.477997 1.8179016 -30.895767 -3.5753937 -39.592194 -13.849731c-10.659927 5.0641785 -23.45102 6.5230255 -35.487823 4.047455c-12.036789 -2.4755707 -22.305328 -8.677048 -28.489227 -17.205452l0 0c-10.893051 1.0042648 -21.42514 -3.4418945 -26.369278 -11.131874c-4.944153 -7.6899796 -3.2478638 -16.986786 4.2470093 -23.276482l0 0c-9.717407 -4.505638 -14.675827 -13.446373 -12.289642 -22.159943c2.3862 -8.713566 11.576279 -15.225437 22.777954 -16.139915z" fill-rule="evenodd"/><path stroke="#000000" stroke-width="2.0" stroke-linejoin="round" stroke-linecap="butt" d="m223.52711 169.01575c0 2.3048096 -1.8684235 4.173233 -4.173233 4.173233c-2.3048096 0 -4.173233 -1.8684235 -4.173233 -4.173233c0 -2.3048096 1.8684235 -4.173233 4.173233 -4.173233c2.3048096 0 4.173233 1.8684235 4.173233 4.173233z" fill-rule="evenodd"/><path stroke="#000000" stroke-width="2.0" stroke-linejoin="round" stroke-linecap="butt" d="m230.65761 163.8818c0 4.609619 -3.736847 8.346451 -8.346466 8.346451c-4.609619 0 -8.346451 -3.7368317 -8.346451 -8.346451c0 -4.609619 3.7368317 -8.346451 8.346451 -8.346451c4.609619 0 8.346466 3.7368317 8.346466 8.346451z" fill-rule="evenodd"/><path stroke="#000000" stroke-width="2.0" stroke-linejoin="round" stroke-linecap="butt" d="m241.95412 151.51546c0 6.914444 -5.605255 12.519684 -12.519699 12.519684c-6.9144287 0 -12.519684 -5.60524 -12.519684 -12.519684c0 -6.9144287 5.605255 -12.519684 12.519684 -12.519684c6.914444 0 12.519699 5.605255 12.519699 12.519684z" fill-rule="evenodd"/><path stroke="#000000" stroke-width="2.0" stroke-linejoin="round" stroke-linecap="butt" d="m171.75565 90.780235l0 0c-5.29805 0.32671356 -10.59552 -0.63778687 -15.181152 -2.7639923m28.575485 33.01155c-2.1304474 0.66807556 -4.363632 1.1128693 -6.6419525 1.3229141m63.873474 13.211197l0 0c-1.6023712 -1.8931122 -2.9439545 -3.9160614 -4.001892 -6.034378m78.00931 -9.013039c-0.23562622 2.2453995 -0.77124023 4.4648285 -1.5979309 6.621254m33.371338 -47.53183l0 0c12.011566 4.6048203 19.591614 14.231911 19.484436 24.74627m26.475159 -51.10271c-1.9452515 3.580288 -4.9148865 6.756321 -8.676086 9.279079m-12.143433 -43.709465l0 0c0.33148193 1.4458294 0.4848938 2.913391 0.45809937 4.3823414m-55.86792 -9.494129l0 0c1.1304932 -2.0217524 2.6276855 -3.9042025 4.4449463 -5.5887384m-46.016937 8.251676l0 0c0.46121216 -1.670783 1.1843262 -3.2898588 2.15271 -4.819932m-50.942184 6.457507l0 0c2.8275452 1.3045406 5.443405 2.8747005 7.7901306 4.6759872m-66.95799 32.074295l0 0c-0.6172333 -1.6091537 -1.0718384 -3.254242 -1.3595581 -4.9198647" fill-rule="evenodd"/></g><g filter="url(#shadowFilter-p.3)"><use xlink:href="#p.3" transform="matrix(1.0 0.0 0.0 1.0 0.0 2.0)"/></g><defs><filter id="shadowFilter-p.3" filterUnits="userSpaceOnUse"><feGaussianBlur in="SourceAlpha" stdDeviation="2.0" result="blur"/><feComponentTransfer in="blur" color-interpolation-filters="sRGB"><feFuncR type="linear" slope="0" intercept="0.0"/><feFuncG type="linear" slope="0" intercept="0.0"/><feFuncB type="linear" slope="0" intercept="0.0"/><feFuncA type="linear" slope="0.5" intercept="0"/></feComponentTransfer></filter></defs><g id="p.3"><path fill="#ff7f50" d="m234.08069 33.04853c-4.6719055 0 -8.79982 1.6655502 -12.383743 4.9966507c-3.5839233 3.3311043 -6.332306 8.432625 -8.245163 15.304558c-1.9057312 6.859604 -2.858612 14.24971 -2.858612 22.170326c0 7.994644 0.95999146 15.230537 2.8799438 21.70768c1.9199677 6.4771347 4.760788 11.430603 8.522491 14.860413c3.768814 3.4174576 7.9571686 5.12619 12.565079 5.12619c3.4132538 0 6.7411957 -1.0610199 9.983795 -3.183052c3.2425995 -2.1343765 6.3891907 -5.3112564 9.439804 -9.530647l0 -30.20198l-19.871597 0.055511475l0 9.549156l13.791718 0l0 15.156509c-1.3226318 2.035675 -3.2639313 3.9541397 -5.823883 5.7554016c-2.5599365 1.7889252 -5.1838837 2.6833878 -7.8718414 2.6833878c-3.0932617 0 -6.015869 -1.1843872 -8.767807 -3.5531693c-2.7519531 -2.368782 -4.8496857 -5.995987 -6.293213 -10.881599c-1.4364014 -4.8856125 -2.1546173 -10.95562 -2.1546173 -18.210014c0 -5.8849487 0.59732056 -11.344254 1.7919617 -16.377914c0.7039795 -2.9239693 1.688858 -5.607353 2.954605 -8.050163c1.2728729 -2.4428062 2.9439392 -4.4106216 5.0132294 -5.90345c2.0692902 -1.5051651 4.522583 -2.2577477 7.359848 -2.2577477c2.3679504 0 4.522583 0.71556854 6.463867 2.1467094c1.9412994 1.4188042 3.4346008 3.3125954 4.479904 5.6813774c1.0453186 2.3687859 1.9199677 5.625862 2.6239471 9.771233l5.599884 -2.6648827c-0.8106384 -5.47781 -1.9946136 -9.919277 -3.5519257 -13.324402c-1.5572968 -3.4051285 -3.7083588 -6.0576706 -6.4532013 -7.95763c-2.7377167 -1.9123001 -5.802536 -2.8684502 -9.194473 -2.8684502z" fill-rule="evenodd"/><path fill="#ff7f50" d="m274.87985 55.533463c-1.3439636 0 -2.5777283 0.6662216 -3.7012634 1.998661c-1.1164246 1.3324394 -2.3359375 4.0898514 -3.6585999 8.272236l0 -8.9384575l-5.1838684 0l0 58.96049l5.759857 0l0 -30.868202c0 -4.2193985 0.32000732 -8.105682 0.95999146 -11.658859c0.42666626 -2.3317719 1.1412964 -4.151535 2.1439514 -5.459305c1.002655 -1.3200989 2.1333008 -1.9801483 3.3919373 -1.9801483c1.407959 0 2.8159485 0.7217331 4.2239075 2.1652145l1.9839478 -9.2715645c-2.0052795 -2.1467094 -3.9785767 -3.220066 -5.919861 -3.220066z" fill-rule="evenodd"/><path fill="#ff7f50" d="m296.7034 55.533463c-1.3439636 0 -2.5777283 0.6662216 -3.7012634 1.998661c-1.1164246 1.3324394 -2.3359375 4.0898514 -3.6585999 8.272236l0 -8.9384575l-5.1838684 0l0 58.96049l5.759857 0l0 -30.868202c0 -4.2193985 0.32000732 -8.105682 0.95999146 -11.658859c0.42666626 -2.3317719 1.1412964 -4.151535 2.1439514 -5.459305c1.002655 -1.3200989 2.1333008 -1.9801483 3.3919373 -1.9801483c1.407959 0 2.8159485 0.7217331 4.2239075 2.1652145l1.9839478 -9.2715645c-2.0052795 -2.1467094 -3.9785767 -3.220066 -5.919861 -3.220066z" fill-rule="evenodd"/><path fill="#ff7f50" d="m318.52695 55.533463c-1.3439636 0 -2.5777283 0.6662216 -3.7012634 1.998661c-1.1164246 1.3324394 -2.3359375 4.0898514 -3.6585999 8.272236l0 -8.9384575l-5.1838684 0l0 58.96049l5.759857 0l0 -30.868202c0 -4.2193985 0.32000732 -8.105682 0.95999146 -11.658859c0.42666626 -2.3317719 1.1413269 -4.151535 2.1439514 -5.459305c1.002655 -1.3200989 2.1333008 -1.9801483 3.3919373 -1.9801483c1.407959 0 2.8159485 0.7217331 4.2239075 2.1652145l1.9839783 -9.2715645c-2.00531 -2.1467094 -3.9786072 -3.220066 -5.9198914 -3.220066z" fill-rule="evenodd"/><path fill="#ff7f50" d="m329.18274 34.43649l0 18.043465l1.7599487 43.13776l3.711914 0l1.663971 -43.13776l0 -18.043465zm0.25598145 70.00864l0 11.381264l6.623871 0l0 -11.381264z" fill-rule="evenodd"/><path stroke="#000000" stroke-width="2.0" stroke-linejoin="round" stroke-linecap="butt" d="m234.08069 33.04853c-4.6719055 0 -8.79982 1.6655502 -12.383743 4.9966507c-3.5839233 3.3311043 -6.332306 8.432625 -8.245163 15.304558c-1.9057312 6.859604 -2.858612 14.24971 -2.858612 22.170326c0 7.994644 0.95999146 15.230537 2.8799438 21.70768c1.9199677 6.4771347 4.760788 11.430603 8.522491 14.860413c3.768814 3.4174576 7.9571686 5.12619 12.565079 5.12619c3.4132538 0 6.7411957 -1.0610199 9.983795 -3.183052c3.2425995 -2.1343765 6.3891907 -5.3112564 9.439804 -9.530647l0 -30.20198l-19.871597 0.055511475l0 9.549156l13.791718 0l0 15.156509c-1.3226318 2.035675 -3.2639313 3.9541397 -5.823883 5.7554016c-2.5599365 1.7889252 -5.1838837 2.6833878 -7.8718414 2.6833878c-3.0932617 0 -6.015869 -1.1843872 -8.767807 -3.5531693c-2.7519531 -2.368782 -4.8496857 -5.995987 -6.293213 -10.881599c-1.4364014 -4.8856125 -2.1546173 -10.95562 -2.1546173 -18.210014c0 -5.8849487 0.59732056 -11.344254 1.7919617 -16.377914c0.7039795 -2.9239693 1.688858 -5.607353 2.954605 -8.050163c1.2728729 -2.4428062 2.9439392 -4.4106216 5.0132294 -5.90345c2.0692902 -1.5051651 4.522583 -2.2577477 7.359848 -2.2577477c2.3679504 0 4.522583 0.71556854 6.463867 2.1467094c1.9412994 1.4188042 3.4346008 3.3125954 4.479904 5.6813774c1.0453186 2.3687859 1.9199677 5.625862 2.6239471 9.771233l5.599884 -2.6648827c-0.8106384 -5.47781 -1.9946136 -9.919277 -3.5519257 -13.324402c-1.5572968 -3.4051285 -3.7083588 -6.0576706 -6.4532013 -7.95763c-2.7377167 -1.9123001 -5.802536 -2.8684502 -9.194473 -2.8684502z" fill-rule="evenodd"/><path stroke="#000000" stroke-width="2.0" stroke-linejoin="round" stroke-linecap="butt" d="m274.87985 55.533463c-1.3439636 0 -2.5777283 0.6662216 -3.7012634 1.998661c-1.1164246 1.3324394 -2.3359375 4.0898514 -3.6585999 8.272236l0 -8.9384575l-5.1838684 0l0 58.96049l5.759857 0l0 -30.868202c0 -4.2193985 0.32000732 -8.105682 0.95999146 -11.658859c0.42666626 -2.3317719 1.1412964 -4.151535 2.1439514 -5.459305c1.002655 -1.3200989 2.1333008 -1.9801483 3.3919373 -1.9801483c1.407959 0 2.8159485 0.7217331 4.2239075 2.1652145l1.9839478 -9.2715645c-2.0052795 -2.1467094 -3.9785767 -3.220066 -5.919861 -3.220066z" fill-rule="evenodd"/><path stroke="#000000" stroke-width="2.0" stroke-linejoin="round" stroke-linecap="butt" d="m296.7034 55.533463c-1.3439636 0 -2.5777283 0.6662216 -3.7012634 1.998661c-1.1164246 1.3324394 -2.3359375 4.0898514 -3.6585999 8.272236l0 -8.9384575l-5.1838684 0l0 58.96049l5.759857 0l0 -30.868202c0 -4.2193985 0.32000732 -8.105682 0.95999146 -11.658859c0.42666626 -2.3317719 1.1412964 -4.151535 2.1439514 -5.459305c1.002655 -1.3200989 2.1333008 -1.9801483 3.3919373 -1.9801483c1.407959 0 2.8159485 0.7217331 4.2239075 2.1652145l1.9839478 -9.2715645c-2.0052795 -2.1467094 -3.9785767 -3.220066 -5.919861 -3.220066z" fill-rule="evenodd"/><path stroke="#000000" stroke-width="2.0" stroke-linejoin="round" stroke-linecap="butt" d="m318.52695 55.533463c-1.3439636 0 -2.5777283 0.6662216 -3.7012634 1.998661c-1.1164246 1.3324394 -2.3359375 4.0898514 -3.6585999 8.272236l0 -8.9384575l-5.1838684 0l0 58.96049l5.759857 0l0 -30.868202c0 -4.2193985 0.32000732 -8.105682 0.95999146 -11.658859c0.42666626 -2.3317719 1.1413269 -4.151535 2.1439514 -5.459305c1.002655 -1.3200989 2.1333008 -1.9801483 3.3919373 -1.9801483c1.407959 0 2.8159485 0.7217331 4.2239075 2.1652145l1.9839783 -9.2715645c-2.00531 -2.1467094 -3.9786072 -3.220066 -5.9198914 -3.220066z" fill-rule="evenodd"/><path stroke="#000000" stroke-width="2.0" stroke-linejoin="round" stroke-linecap="butt" d="m329.18274 34.43649l0 18.043465l1.7599487 43.13776l3.711914 0l1.663971 -43.13776l0 -18.043465zm0.25598145 70.00864l0 11.381264l6.623871 0l0 -11.381264z" fill-rule="evenodd"/></g><g filter="url(#shadowFilter-p.4)"><use xlink:href="#p.4" transform="matrix(1.0 0.0 0.0 1.0 0.0 2.0)"/></g><defs><filter id="shadowFilter-p.4" filterUnits="userSpaceOnUse"><feGaussianBlur in="SourceAlpha" stdDeviation="2.0" result="blur"/><feComponentTransfer in="blur" color-interpolation-filters="sRGB"><feFuncR type="linear" slope="0" intercept="0.0"/><feFuncG type="linear" slope="0" intercept="0.0"/><feFuncB type="linear" slope="0" intercept="0.0"/><feFuncA type="linear" slope="0.5" intercept="0"/></feComponentTransfer></filter></defs><g id="p.4"><path fill="#ffffff" d="m84.33615 263.5853l64.49304 0c2.6035004 0 5.100357 1.0342407 6.9412994 2.875183c1.8409424 1.8409424 2.875183 4.337799 2.875183 6.941284l0 49.081177c0 3.9672852E-4 -3.2043457E-4 7.019043E-4 -7.019043E-4 7.019043E-4l-84.12529 -7.019043E-4l0 0c-3.8909912E-4 0 -7.019043E-4 -3.0517578E-4 -7.019043E-4 -7.019043E-4l7.019043E-4 -49.080475l0 0c0 -5.4214783 4.3949814 -9.816467 9.816467 -9.816467z" fill-rule="evenodd"/><path stroke="#000000" stroke-width="2.0" stroke-linejoin="round" stroke-linecap="butt" d="m84.33615 263.5853l64.49304 0c2.6035004 0 5.100357 1.0342407 6.9412994 2.875183c1.8409424 1.8409424 2.875183 4.337799 2.875183 6.941284l0 49.081177c0 3.9672852E-4 -3.2043457E-4 7.019043E-4 -7.019043E-4 7.019043E-4l-84.12529 -7.019043E-4l0 0c-3.8909912E-4 0 -7.019043E-4 -3.0517578E-4 -7.019043E-4 -7.019043E-4l7.019043E-4 -49.080475l0 0c0 -5.4214783 4.3949814 -9.816467 9.816467 -9.816467z" fill-rule="evenodd"/></g><g filter="url(#shadowFilter-p.5)"><use xlink:href="#p.5" transform="matrix(1.0 0.0 0.0 1.0 0.0 2.0)"/></g><defs><filter id="shadowFilter-p.5" filterUnits="userSpaceOnUse"><feGaussianBlur in="SourceAlpha" stdDeviation="2.0" result="blur"/><feComponentTransfer in="blur" color-interpolation-filters="sRGB"><feFuncR type="linear" slope="0" intercept="0.0"/><feFuncG type="linear" slope="0" intercept="0.0"/><feFuncB type="linear" slope="0" intercept="0.0"/><feFuncA type="linear" slope="0.5" intercept="0"/></feComponentTransfer></filter></defs><g id="p.5"><path fill="#000000" d="m133.20473 213.10236l48.078735 -36.06299l48.078735 0l-96.15747 72.12599z" fill-rule="evenodd"/><path stroke="#000000" stroke-width="2.0" stroke-linejoin="round" stroke-linecap="butt" d="m133.20473 213.10236l48.078735 -36.06299l48.078735 0l-96.15747 72.12599z" fill-rule="evenodd"/></g><g filter="url(#shadowFilter-p.6)"><use xlink:href="#p.6" transform="matrix(1.0 0.0 0.0 1.0 0.0 2.0)"/></g><defs><filter id="shadowFilter-p.6" filterUnits="userSpaceOnUse"><feGaussianBlur in="SourceAlpha" stdDeviation="2.0" result="blur"/><feComponentTransfer in="blur" color-interpolation-filters="sRGB"><feFuncR type="linear" slope="0" intercept="0.0"/><feFuncG type="linear" slope="0" intercept="0.0"/><feFuncB type="linear" slope="0" intercept="0.0"/><feFuncA type="linear" slope="0.5" intercept="0"/></feComponentTransfer></filter></defs><g id="p.6"><path fill="#000000" d="m96.15748 213.10236l-48.07874 -36.06299l-48.07874 0l96.15748 72.12599z" fill-rule="evenodd"/><path stroke="#000000" stroke-width="2.0" stroke-linejoin="round" stroke-linecap="butt" d="m96.15748 213.10236l-48.07874 -36.06299l-48.07874 0l96.15748 72.12599z" fill-rule="evenodd"/></g><g filter="url(#shadowFilter-p.7)"><use xlink:href="#p.7" transform="matrix(1.0 0.0 0.0 1.0 0.0 2.0)"/></g><defs><filter id="shadowFilter-p.7" filterUnits="userSpaceOnUse"><feGaussianBlur in="SourceAlpha" stdDeviation="2.0" result="blur"/><feComponentTransfer in="blur" color-interpolation-filters="sRGB"><feFuncR type="linear" slope="0" intercept="0.0"/><feFuncG type="linear" slope="0" intercept="0.0"/><feFuncB type="linear" slope="0" intercept="0.0"/><feFuncA type="linear" slope="0.5" intercept="0"/></feComponentTransfer></filter></defs><g id="p.7"><path fill="#ff0000" d="m25.013216 196.27032l22.205427 50.110092l48.323753 2.7840576z" fill-rule="evenodd"/><path stroke="#000000" stroke-width="2.0" stroke-linejoin="round" stroke-linecap="butt" d="m25.013216 196.27032l22.205427 50.110092l48.323753 2.7840576z" fill-rule="evenodd"/></g><g filter="url(#shadowFilter-p.8)"><use xlink:href="#p.8" transform="matrix(1.0 0.0 0.0 1.0 0.0 2.0)"/></g><defs><filter id="shadowFilter-p.8" filterUnits="userSpaceOnUse"><feGaussianBlur in="SourceAlpha" stdDeviation="2.0" result="blur"/><feComponentTransfer in="blur" color-interpolation-filters="sRGB"><feFuncR type="linear" slope="0" intercept="0.0"/><feFuncG type="linear" slope="0" intercept="0.0"/><feFuncB type="linear" slope="0" intercept="0.0"/><feFuncA type="linear" slope="0.5" intercept="0"/></feComponentTransfer></filter></defs><g id="p.8"><path fill="#ff0000" d="m203.73228 196.27034l-22.20543 50.110092l-48.323746 2.7840729z" fill-rule="evenodd"/><path stroke="#000000" stroke-width="2.0" stroke-linejoin="round" stroke-linecap="butt" d="m203.73228 196.27034l-22.20543 50.110092l-48.323746 2.7840729z" fill-rule="evenodd"/></g><g filter="url(#shadowFilter-p.9)"><use xlink:href="#p.9" transform="matrix(1.0 0.0 0.0 1.0 0.0 2.0)"/></g><defs><filter id="shadowFilter-p.9" filterUnits="userSpaceOnUse"><feGaussianBlur in="SourceAlpha" stdDeviation="2.0" result="blur"/><feComponentTransfer in="blur" color-interpolation-filters="sRGB"><feFuncR type="linear" slope="0" intercept="0.0"/><feFuncG type="linear" slope="0" intercept="0.0"/><feFuncB type="linear" slope="0" intercept="0.0"/><feFuncA type="linear" slope="0.5" intercept="0"/></feComponentTransfer></filter></defs><g id="p.9"><path fill="#ffffff" d="m75.10761 322.48294l20.433067 -57.69815l13.223099 58.900238l16.8294 -60.102356l8.412071 58.90027l13.223099 -57.69815l9.616791 60.102356z" fill-rule="evenodd"/><path stroke="#000000" stroke-width="2.0" stroke-linejoin="round" stroke-linecap="butt" d="m75.10761 322.48294l20.433067 -57.69815l13.223099 58.900238l16.8294 -60.102356l8.412071 58.90027l13.223099 -57.69815l9.616791 60.102356z" fill-rule="evenodd"/></g></g></svg>