<svg version="1.1" viewBox="0.0 0.0 960.0 720.0" fill="none" stroke="none" stroke-linecap="square" stroke-miterlimit="10" xmlns:xlink="http://www.w3.org/1999/xlink" xmlns="http://www.w3.org/2000/svg"><clipPath id="p.0"><path d="m0 0l960.0 0l0 720.0l-960.0 0l0 -720.0z" clip-rule="nonzero"/></clipPath><g clip-path="url(#p.0)"><path fill="#000000" fill-opacity="0.0" d="m0 0l960.0 0l0 720.0l-960.0 0z" fill-rule="evenodd"/><g mask="url(#mask-p.1)"><use xlink:href="#p.1" transform="matrix(1.0 0.0 0.0 -1.0 0.0 414.40420787401575)"/></g><defs><mask id="mask-p.1" maskUnits="userSpaceOnUse" x="-6.501312335958005" y="204.20210393700788" width="973.0" height="214.70210393700788"><linearGradient gradientUnits="userSpaceOnUse" id="gradient-p.1" x1="-0.5013123233647787" y1="212.19862512654436" x2="-0.5016058402483508" y2="293.2808594326898"><stop offset="0%" stop-color="#ffffff" stop-opacity="1.0"/><stop offset="100%" stop-color="#ffffff" stop-opacity="0.0"/></linearGradient><rect fill="url(#gradient-p.1)" x="-6.501312335958005" y="204.20210393700788" width="973.0" height="214.70210393700788"/></mask></defs><g id="p.1"><g filter="url(#shadowFilter-p.2)"><use xlink:href="#p.2" transform="matrix(1.0 0.0 0.0 1.0 0.0 2.0)"/></g><defs><filter id="shadowFilter-p.2" filterUnits="userSpaceOnUse"><feGaussianBlur in="SourceAlpha" stdDeviation="2.0" result="blur"/><feComponentTransfer in="blur" color-interpolation-filters="sRGB"><feFuncR type="linear" slope="0" intercept="0.0"/><feFuncG type="linear" slope="0" intercept="0.0"/><feFuncB type="linear" slope="0" intercept="0.0"/><feFuncA type="linear" slope="0.5" intercept="0"/></feComponentTransfer></filter></defs><g id="p.2"><path fill="#000000" fill-opacity="0.0" d="m-0.001312336 33.61769l0 0c18.566538 0 33.61769 -15.051153 33.61769 -33.61769l892.7646 0l0 4.1169795E-15c0 18.566538 15.051147 33.61769 33.617676 33.61769l0 134.46672c-18.566528 0 -33.617676 15.051147 -33.617676 33.61769l-892.7646 0c0 -18.566544 -15.051153 -33.61769 -33.61769 -33.61769z" fill-rule="evenodd"/><path stroke="#000000" stroke-width="1.0" stroke-linejoin="round" stroke-linecap="butt" d="m-0.001312336 33.61769l0 0c18.566538 0 33.61769 -15.051153 33.61769 -33.61769l892.7646 0l0 4.1169795E-15c0 18.566538 15.051147 33.61769 33.617676 33.61769l0 134.46672c-18.566528 0 -33.617676 15.051147 -33.617676 33.61769l-892.7646 0c0 -18.566544 -15.051153 -33.61769 -33.61769 -33.61769z" fill-rule="evenodd"/></g></g><g filter="url(#shadowFilter-p.3)"><use xlink:href="#p.3" transform="matrix(1.0 0.0 0.0 1.0 -57.440206692913385 41.73275252214567)"/></g><defs><filter id="shadowFilter-p.3" filterUnits="userSpaceOnUse"><feGaussianBlur in="SourceAlpha" stdDeviation="11.0" result="blur"/><feComponentTransfer in="blur" color-interpolation-filters="sRGB"><feFuncR type="linear" slope="0" intercept="0.0"/><feFuncG type="linear" slope="0" intercept="0.0"/><feFuncB type="linear" slope="0" intercept="0.0"/><feFuncA type="linear" slope="0.25" intercept="0"/></feComponentTransfer></filter></defs><g id="p.3"><path fill="#000000" fill-opacity="0.0" d="m198.41402 34.004414c-8.90921 0 -16.664078 1.3326378 -23.264618 3.9979172c-6.585739 2.6513214 -11.632324 6.3771286 -15.1397705 11.177418c-3.4926453 4.800289 -5.238983 10.28434 -5.238983 16.452156c0 5.9166336 1.5687408 10.870422 4.7062073 14.861359c3.1374664 3.976982 6.9113007 7.12368 11.321518 9.440102c4.4102325 2.3164215 10.115387 4.7654037 17.115494 7.3469543c5.460968 2.0512924 9.686188 3.7886047 12.675659 5.2119446c3.0042725 1.4093857 5.505371 3.167633 7.503296 5.2747345c2.0127106 2.093155 3.0190735 4.597954 3.0190735 7.514412c0 4.7165604 -2.182907 8.379578 -6.5487366 10.989029c-4.365814 2.609459 -10.411362 3.9141922 -18.136642 3.9141922c-7.4588776 0 -13.260223 -0.94192505 -17.404068 -2.8257523c-4.1290283 -1.8838348 -6.1935425 -4.7514496 -6.1935425 -8.602844c0 -0.9488983 0.066604614 -1.8489532 0.19979858 -2.7001648c0.13319397 -0.86517334 0.19979858 -1.4652023 0.19979858 -1.8001099c0.26638794 -1.2977524 0.3995819 -2.7978363 0.3995819 -4.500267c0 -1.897789 -0.769577 -3.4467163 -2.3087158 -4.6467896c-1.5391235 -1.2000732 -3.537033 -1.8001099 -5.993744 -1.8001099c-3.3742523 0 -5.9271545 1.248909 -7.658676 3.7467346c-1.7167206 2.4838715 -2.5750885 6.0840836 -2.5750885 10.800652c0 8.916817 3.633255 15.538155 10.8997345 19.86399c7.281296 4.325836 16.967484 6.4887543 29.058594 6.4887543c13.645035 0 24.529968 -2.7210846 32.654816 -8.163269c8.139679 -5.4421997 12.209488 -13.221733 12.209488 -23.338623c0 -5.400322 -1.4799347 -9.942459 -4.439804 -13.626404c-2.9450836 -3.6978989 -6.5117493 -6.6143494 -10.699951 -8.749367c-4.1734314 -2.148964 -9.715805 -4.5491104 -16.627106 -7.200432c-5.727356 -2.1489716 -10.181976 -3.9909363 -13.363846 -5.525917c-3.1818542 -1.5489273 -5.8457336 -3.481598 -7.9916534 -5.7980194c-2.1311188 -2.3164215 -3.1966705 -5.1003113 -3.1966705 -8.351669c0 -4.884014 2.0645142 -8.679592 6.1935425 -11.38673c4.1438293 -2.7071419 10.122772 -4.060711 17.936844 -4.060711c5.549774 0 10.189377 0.9488945 13.918823 2.8466835c3.7294312 1.8838348 5.594162 4.6258583 5.594162 8.226078c0 0.6837616 -0.13319397 2.3094368 -0.3995819 4.877037c-0.28120422 1.3814774 -0.42178345 2.881569 -0.42178345 4.5002747c0 1.897789 0.79177856 3.5304413 2.3753052 4.8979645c1.5983276 1.3675232 3.5814362 2.0512848 5.949341 2.0512848c3.3594513 0 5.904953 -1.3675156 7.63649 -4.1025696c1.7315216 -2.7490005 2.59729 -6.8236694 2.59729 -12.223991c0 -5.4840546 -1.6649323 -10.109913 -4.9947968 -13.877583c-3.3150482 -3.7816238 -7.7474823 -6.593418 -13.297241 -8.43539c-5.534958 -1.8419724 -11.624893 -2.7629585 -18.269836 -2.7629585z" fill-rule="evenodd"/><path fill="#000000" fill-opacity="0.0" d="m277.66003 94.956924l-2.59729 12.998459c-1.6279297 8.567963 -3.4926453 14.526459 -5.5941772 17.875496c-2.0867004 3.3350906 -4.4028015 5.002632 -6.948303 5.002632c-1.7315369 0 -3.1226807 -0.66282654 -4.1734314 -1.9884949c-1.0359497 -1.3256683 -1.5539246 -3.279274 -1.5539246 -5.860817c0 -4.800293 0.9545593 -9.34243 2.863678 -13.626404c1.9091187 -4.2839813 4.4546204 -7.7307053 7.6364746 -10.340157c3.1818542 -2.623413 6.6375427 -3.9769897 10.366974 -4.0607147zm-1.6427307 -11.951881c-6.274933 0 -12.209503 1.8628998 -17.80365 5.588707c-5.579361 3.7258072 -10.056183 8.658661 -13.430435 14.798569c-3.3594513 6.125946 -5.0392 12.614708 -5.0392 19.466286c0 6.2654953 1.6131439 11.330925 4.8394012 15.196266c3.2262573 3.8513947 7.4292755 5.7770996 12.609085 5.7770996c6.9112854 0 11.780273 -3.6909332 14.606964 -11.072769l0 0l-0.13317871 2.0722198c0 3.167633 0.7473755 5.4631195 2.242096 6.8864594c1.4947205 1.4093933 3.7886353 2.11409 6.881714 2.11409c3.1818542 0 5.475769 -0.70469666 6.881714 -2.11409c1.4207458 -1.4233398 2.1311035 -3.7676697 2.1311035 -7.0329742c0 -5.9026794 0.2738037 -11.233238 0.8213806 -15.991669c0.5475769 -4.7584305 1.3171387 -9.754074 2.3086853 -14.986946c0.917572 -4.884018 1.3763428 -8.31678 1.3763428 -10.298294c0 -1.8838348 -0.59198 -3.335083 -1.7759094 -4.353752c-1.18396 -1.0326233 -2.8710938 -1.5489349 -5.0614014 -1.5489349c-2.0867004 0 -3.995819 0.16745758 -5.727356 0.5023575c-0.44396973 -1.8838348 -1.0063477 -3.1885605 -1.6871338 -3.9141846c-0.68078613 -0.7256317 -2.0275269 -1.08844 -4.040222 -1.08844z" fill-rule="evenodd"/><path fill="#000000" fill-opacity="0.0" d="m340.12714 94.956924l-4.37323 21.999c-0.81396484 4.4514313 -2.1755066 7.8772125 -4.0846252 10.277367c-1.9091187 2.4001465 -3.9070435 3.6002197 -5.993744 3.6002197c-1.9979248 0 -3.5666504 -0.64190674 -4.7062073 -1.925705c-1.1395569 -1.2837982 -1.7093201 -3.258339 -1.7093201 -5.923607c0 -4.800293 0.9545593 -9.34243 2.863678 -13.626404c1.9091187 -4.2839813 4.4546204 -7.7307053 7.6364746 -10.340157c3.1818848 -2.623413 6.637512 -3.9769897 10.366974 -4.0607147zm-9.811981 61.97815l0 0c-2.6343079 11.233246 -5.3869934 19.424438 -8.258057 24.573578c-2.8710938 5.1491547 -5.4387817 7.7237244 -7.7030945 7.7237244c-1.3615417 0 -2.3382874 -0.47444153 -2.9302673 -1.4233398c-0.59198 -0.9488983 -0.88797 -2.1489716 -0.88797 -3.6002197c0 -3.4327698 1.5465393 -7.423706 4.639618 -11.972809c3.0930786 -4.5351562 8.139648 -9.635468 15.1397705 -15.300934zm8.1692505 -73.93003c-6.274933 0 -12.209503 1.8628998 -17.80365 5.588707c-5.579376 3.7258072 -10.056183 8.658661 -13.43045 14.798569c-3.3594666 6.125946 -5.0391846 12.614708 -5.0391846 19.466286c0 6.2654953 1.679718 11.330925 5.0391846 15.196266c3.3742676 3.8513947 7.8806763 5.7770996 13.519226 5.7770996c2.4566956 0 4.928192 -0.6209717 7.4144897 -1.862915c2.5010986 -1.2419281 4.5286255 -3.021103 6.08255 -5.3375244l0 0l-0.8213501 5.0026245c-14.000214 10.200623 -23.545807 18.796478 -28.63681 25.787598c-5.0910034 6.9911194 -7.6364746 13.528732 -7.6364746 19.612823c0 4.367691 1.4503479 7.905121 4.351013 10.612274c2.9154663 2.7071228 6.689331 4.0606995 11.321533 4.0606995c9.826782 0 17.67044 -6.412018 23.531006 -19.236053c5.860565 -12.82402 10.522369 -30.29483 13.985413 -52.41246c0.3551941 -2.4001389 1.2209473 -7.3260193 2.59729 -14.777626c1.9091187 -11.065788 3.0412598 -17.924347 3.3964539 -20.57566c0.08880615 -0.6000366 0.13320923 -1.4163666 0.13320923 -2.4489899c0 -1.8838348 -0.48098755 -3.146698 -1.4429626 -3.788597c-0.94714355 -0.6418991 -2.552887 -0.9628525 -4.8171997 -0.9628525c-2.2790833 0 -4.2843933 0.16745758 -6.01593 0.5023575c-0.44396973 -1.8838348 -1.0063782 -3.1885605 -1.6871338 -3.9141846c-0.6807556 -0.7256317 -2.0274963 -1.08844 -4.040222 -1.08844z" fill-rule="evenodd"/><path fill="#000000" fill-opacity="0.0" d="m391.6879 95.85698c1.6279297 0 2.9154663 0.49538422 3.8626404 1.4861374c0.9619446 0.97680664 1.4429321 2.2815323 1.4429321 3.9141922c0 3.1676254 -1.5465393 5.951523 -4.639618 8.351662c-3.078247 2.4001389 -7.303467 4.2002487 -12.675659 5.4003296l0 -0.25118256c0 -5.232872 1.1617737 -9.691277 3.48526 -13.375221c2.3235168 -3.6839447 5.164978 -5.525917 8.524445 -5.525917zm2.3086853 -12.600761c-5.9049377 0 -11.203125 1.5000916 -15.894531 4.5002747c-4.6765747 3.0001755 -8.332031 7.0539093 -10.966339 12.161194c-2.6342773 5.0933304 -3.951416 10.59832 -3.951416 16.514954c0 8.400505 2.4049072 15.070671 7.214691 20.010506c4.8246155 4.925888 11.602722 7.3888245 20.33435 7.3888245c5.727356 0 10.655548 -1.02565 14.784576 -3.0769348c4.1438293 -2.0652313 7.488495 -4.9398346 10.033966 -8.623779c1.539154 -2.2326813 2.3087158 -4.8909836 2.3087158 -7.9748993c0 -1.8001022 -0.34039307 -3.2164688 -1.0211487 -4.249092c-0.68078613 -1.0326233 -1.6131287 -1.5489273 -2.7970886 -1.5489273c-1.3615417 0 -2.582489 0.6418915 -3.6628418 1.9256973c-3.1818848 3.8653488 -5.978943 6.6143494 -8.391266 8.247002c-2.4122925 1.6187134 -5.4831543 2.4280548 -9.212616 2.4280548c-5.179779 0 -8.864807 -1.9675598 -11.055115 -5.9026794c10.818329 -2.4838638 18.47702 -5.846855 22.976013 -10.088974c4.5138245 -4.2560806 6.7707214 -9.34243 6.7707214 -15.259064c0 -5.051468 -1.5909119 -9.056358 -4.7727966 -12.014679c-3.1818542 -2.958313 -7.4144897 -4.437477 -12.697876 -4.437477z" fill-rule="evenodd"/><path fill="#000000" fill-opacity="0.0" d="m565.3144 41.581615c1.0951538 0 2.00531 0.5581703 2.7304688 1.6745186c0.7252197 1.1163483 1.0877686 2.6582985 1.0877686 4.625862c0 8.233055 -1.7315063 14.966019 -5.19458 20.19889c-3.4482422 5.232872 -8.813049 9.2586975 -16.0943 12.077469c1.18396 -7.01902 2.7748413 -13.486855 4.772766 -19.403492c2.0127563 -5.9166336 4.1290283 -10.591335 6.348938 -14.024101c2.2347412 -3.432766 4.351013 -5.149147 6.348938 -5.149147zm37.51001 55.426594c2.5454712 0 4.7210083 1.2000732 6.5264893 3.6002197c1.8203735 2.4001465 2.7305298 5.958496 2.7305298 10.675064c0 6.0980453 -1.0655518 10.730881 -3.1967163 13.898514c-2.1311035 3.167633 -4.743164 4.7514496 -7.8362427 4.7514496c-2.7230835 0 -4.994812 -1.1582184 -6.8151245 -3.4746323c-1.8203125 -2.3164139 -2.7304688 -5.9166336 -2.7304688 -10.800652c0 -6.1678085 1.0655518 -10.814598 3.1966553 -13.940376c2.145935 -3.1397247 4.854187 -4.709587 8.124878 -4.709587zm-36.82184 -66.60401c-6.186157 0 -11.780273 2.5745754 -16.78247 7.7237225c-5.0021973 5.135193 -9.19043 11.819317 -12.564697 20.052372c-3.359436 8.233055 -5.8531494 17.059166 -7.481079 26.47834c-4.0994263 0.6000366 -9.012817 1.0326233 -14.740173 1.2977524l-13.363861 0.64888c2.1755066 -12.182137 3.2632751 -21.83155 3.2632751 -28.948261c0 -8.051647 -1.6131287 -13.982239 -4.839386 -17.79177c-3.2262878 -3.8234863 -7.79187 -5.7352295 -13.696838 -5.7352295c-6.274933 0 -12.46109 1.6954536 -18.55841 5.0863533c-6.08255 3.3769493 -11.12915 7.681858 -15.1397705 12.914734c-2.2643127 3.000183 -3.3964539 5.8329124 -3.3964539 8.498188c0 1.7024269 0.45877075 3.1118164 1.3763428 4.228161c0.9027405 1.1163406 1.990509 1.6745224 3.2632446 1.6745224c1.4503479 0 2.7674866 -0.7256317 3.9514465 -2.17688c7.9916687 -10.033161 15.176758 -15.049744 21.555298 -15.049744c2.0867004 0 3.766449 0.73260117 5.0391846 2.1978073c1.2727356 1.451252 1.9091187 4.1932755 1.9091187 8.226078c0 6.33527 -1.18396 15.552097 -3.5518494 27.650501l-7.236908 0.25118256c-3.995819 0.16744995 -6.859497 0.92098236 -8.591034 2.2605972c-1.7167358 1.3256607 -2.5750732 3.3978806 -2.5750732 6.216652c0 2.2326965 0.6807556 3.8444214 2.0422974 4.835182c1.3615417 0.976799 3.544464 1.4652023 6.5487366 1.4652023l6.548706 -0.25118256l0 0c-1.8203125 8.149338 -4.277008 18.091797 -7.3700867 29.827385c-0.45877075 1.9815063 -0.6881714 3.5304413 -0.6881714 4.6467896c0 4.967743 2.908081 7.4516144 8.724243 7.4516144c5.372162 0 9.012817 -3.732788 10.921936 -11.198349c3.2706604 -12.684486 5.816162 -23.401413 7.6364746 -32.15078c1.7315369 -0.083724976 4.957794 -0.2930374 9.6788025 -0.62794495c7.0888977 -0.51631165 13.637604 -1.2907791 19.646149 -2.3233948l0 0c-0.28118896 2.9164505 -0.42175293 5.8329086 -0.42175293 8.749367c0 12.000725 2.6342773 21.21756 7.902893 27.650497c5.283325 6.432953 12.335266 9.649429 21.1557 9.649429c8.150391 0 15.9262085 -3.3261871 23.327454 -9.978546l0 0c1.6941528 2.4195251 3.8095703 4.482834 6.3462524 6.1899414c3.7738647 2.5257263 8.3394165 3.7886047 13.696838 3.7886047c5.4609375 0 10.440979 -1.4373016 14.939941 -4.3118896c4.4990234 -2.8746033 8.065674 -6.8585663 10.699951 -11.951889c2.6342773 -5.1072845 3.951477 -10.919258 3.951477 -17.435936c0 -4.7165604 -0.95458984 -9.133102 -2.8637085 -13.249634c-1.9091187 -4.1165314 -4.772766 -7.43766 -8.591064 -9.963387c-3.8182373 -2.5257416 -8.406006 -3.7886047 -13.763367 -3.7886047c-5.5498047 0 -10.552002 1.4373016 -15.006592 4.3118896c-4.45459 2.8606415 -7.9768677 6.844597 -10.566772 11.951881c-2.5899048 5.1072845 -3.8848267 10.9122925 -3.8848267 17.415c0 1.6696396 0.119628906 3.301674 0.35882568 4.8961105l0 0c-1.8753052 1.7212906 -3.635498 3.0754776 -5.2805786 4.0625687c-3.0930786 1.8419724 -6.5043335 2.7629547 -10.233765 2.7629547c-4.262207 0 -7.5772705 -1.8838272 -9.94519 -5.651497c-2.36792 -3.7816238 -3.55188 -10.172707 -3.55188 -19.173248c0 -3.6839447 0.140625 -7.2422943 0.42181396 -10.675064c22.99823 -8.233055 34.497375 -22.98278 34.497375 -44.24918c0 -5.4840508 -1.3171997 -9.914551 -3.951477 -13.291496c-2.6342773 -3.3909035 -6.2231445 -5.086355 -10.766541 -5.086355z" fill-rule="evenodd"/><path fill="#000000" fill-opacity="0.0" d="m674.4215 94.956924l-4.37323 21.999c-0.81396484 4.4514313 -2.175476 7.8772125 -4.0845947 10.277367c-1.9091187 2.4001465 -3.9070435 3.6002197 -5.9937744 3.6002197c-1.9979248 0 -3.5666504 -0.64190674 -4.7061768 -1.925705c-1.1395874 -1.2837982 -1.7093506 -3.258339 -1.7093506 -5.923607c0 -4.800293 0.9545288 -9.34243 2.8636475 -13.626404c1.9091187 -4.2839813 4.454651 -7.7307053 7.6365356 -10.340157c3.1818237 -2.623413 6.637512 -3.9769897 10.366943 -4.0607147zm-9.812012 61.97815l0 0c-2.6342773 11.233246 -5.386963 19.424438 -8.258057 24.573578c-2.8710938 5.1491547 -5.4387817 7.7237244 -7.703064 7.7237244c-1.3615112 0 -2.3383179 -0.47444153 -2.9302979 -1.4233398c-0.59191895 -0.9488983 -0.88793945 -2.1489716 -0.88793945 -3.6002197c0 -3.4327698 1.5465088 -7.423706 4.6395874 -11.972809c3.0930786 -4.5351562 8.139709 -9.635468 15.1397705 -15.300934zm8.1692505 -73.93003c-6.2749023 0 -12.209473 1.8628998 -17.80365 5.588707c-5.5793457 3.7258072 -10.056152 8.658661 -13.43042 14.798569c-3.359436 6.125946 -5.0391846 12.614708 -5.0391846 19.466286c0 6.2654953 1.6797485 11.330925 5.0391846 15.196266c3.3742676 3.8513947 7.8806763 5.7770996 13.519226 5.7770996c2.456726 0 4.9282227 -0.6209717 7.4144897 -1.862915c2.5010986 -1.2419281 4.5286255 -3.021103 6.0825806 -5.3375244l0 0l-0.82141113 5.0026245c-14.000183 10.200623 -23.545776 18.796478 -28.63678 25.787598c-5.0910034 6.9911194 -7.6364746 13.528732 -7.6364746 19.612823c0 4.367691 1.4503174 7.905121 4.351013 10.612274c2.9154663 2.7071228 6.689331 4.0606995 11.321533 4.0606995c9.826782 0 17.670471 -6.412018 23.531006 -19.236053c5.8605347 -12.82402 10.522339 -30.29483 13.985413 -52.41246c0.35516357 -2.4001389 1.2209473 -7.3260193 2.59729 -14.777626c1.9091187 -11.065788 3.0412598 -17.924347 3.3964844 -20.57566c0.08874512 -0.6000366 0.13317871 -1.4163666 0.13317871 -2.4489899c0 -1.8838348 -0.48101807 -3.146698 -1.4429321 -3.788597c-0.9472046 -0.6418991 -2.5529175 -0.9628525 -4.8171997 -0.9628525c-2.2791138 0 -4.284424 0.16745758 -6.015991 0.5023575c-0.44396973 -1.8838348 -1.0063477 -3.1885605 -1.6870728 -3.9141846c-0.68078613 -0.7256317 -2.027588 -1.08844 -4.040283 -1.08844z" fill-rule="evenodd"/><path fill="#000000" fill-opacity="0.0" d="m716.9694 83.25622c-3.5370483 0 -6.126892 0.55817413 -7.7696533 1.6745224c-1.6279297 1.1163406 -2.9006348 2.958313 -3.8182373 5.525917c-2.086731 6.0003586 -3.5888672 11.679771 -4.5064087 17.03823c-0.902771 5.358467 -1.354126 11.254166 -1.354126 17.687119c0 5.832901 1.2949219 10.402954 3.8848267 13.710129c2.5899048 3.2932281 6.0233765 4.9398346 10.300354 4.9398346c3.4482422 0 6.6967163 -1.5838165 9.745422 -4.7514496c3.048645 -3.1815948 5.3425293 -7.7725677 6.881714 -13.772926l0 0c-0.1776123 3.2513657 -0.26641846 5.351494 -0.26641846 6.300377c0 4.800293 0.65856934 8.037689 1.975708 9.712219c1.3171387 1.6745148 3.6628418 2.5117798 7.0371094 2.5117798c3.1818848 0 5.475769 -0.70469666 6.881714 -2.11409c1.4059448 -1.4233398 2.1088867 -3.7676697 2.1088867 -7.0329742c0 -5.7352295 0.2738037 -10.849495 0.82141113 -15.342789c0.5475464 -4.5072556 1.2727661 -9.502899 2.175476 -14.986954c0.45880127 -2.7490005 0.8657837 -5.4282303 1.2209473 -8.037689c0.36999512 -2.623413 0.5549927 -5.002632 0.5549927 -7.137642c0 -1.981514 -0.43658447 -3.460678 -1.3097534 -4.437477c-0.8583374 -0.9907532 -2.286499 -1.4861374 -4.284424 -1.4861374c-2.989441 0 -5.2389526 0.55817413 -6.748535 1.6745224c-1.49469 1.1163406 -2.6046753 2.958313 -3.329834 5.525917c-2.1015015 7.4516068 -4.314026 13.814781 -6.637512 19.089523c-2.3087158 5.2747345 -4.513794 9.223808 -6.6153564 11.847221c-2.08667 2.609459 -3.810791 3.9141922 -5.1723633 3.9141922c-0.99157715 0 -1.7167358 -0.36281586 -2.175476 -1.08844c-0.45880127 -0.7256241 -0.6881714 -1.9884949 -0.6881714 -3.788597c0 -3.0141373 0.91015625 -9.021477 2.7304688 -18.022018c0.5475464 -2.5675964 1.2727661 -5.435211 2.175476 -8.602844c1.0063477 -3.9490814 1.5095825 -6.2654953 1.5095825 -6.949257c0 -1.2000732 -0.38482666 -2.1001282 -1.1543579 -2.7001648c-0.7695923 -0.6000366 -2.1607666 -0.90005493 -4.173462 -0.90005493z" fill-rule="evenodd"/><path fill="#000000" fill-opacity="0.0" d="m788.7221 95.85698c1.6279297 0 2.9154663 0.49538422 3.862671 1.4861374c0.96191406 0.97680664 1.4429321 2.2815323 1.4429321 3.9141922c0 3.1676254 -1.5465698 5.951523 -4.6395874 8.351662c-3.078308 2.4001389 -7.303528 4.2002487 -12.67572 5.4003296l0 -0.25118256c0 -5.232872 1.1617432 -9.691277 3.4852905 -13.375221c2.3234863 -3.6839447 5.164978 -5.525917 8.524414 -5.525917zm2.3087158 -12.600761c-5.9049683 0 -11.203125 1.5000916 -15.894531 4.5002747c-4.6766357 3.0001755 -8.332092 7.0539093 -10.966309 12.161194c-2.6343384 5.0933304 -3.951477 10.59832 -3.951477 16.514954c0 8.400505 2.4049072 15.070671 7.2147217 20.010506c4.824585 4.925888 11.602661 7.3888245 20.33435 7.3888245c5.727356 0 10.655518 -1.02565 14.784546 -3.0769348c4.14386 -2.0652313 7.4885254 -4.9398346 10.033997 -8.623779c1.5391235 -2.2326813 2.3087158 -4.8909836 2.3087158 -7.9748993c0 -1.8001022 -0.34039307 -3.2164688 -1.0211792 -4.249092c-0.68078613 -1.0326233 -1.6130981 -1.5489273 -2.797058 -1.5489273c-1.3615723 0 -2.5825195 0.6418915 -3.6628418 1.9256973c-3.1818848 3.8653488 -5.978943 6.6143494 -8.391235 8.247002c-2.4123535 1.6187134 -5.4832153 2.4280548 -9.2126465 2.4280548c-5.1797485 0 -8.864807 -1.9675598 -11.055115 -5.9026794c10.818298 -2.4838638 18.47699 -5.846855 22.976013 -10.088974c4.513794 -4.2560806 6.770691 -9.34243 6.770691 -15.259064c0 -5.051468 -1.5908813 -9.056358 -4.772766 -12.014679c-3.1818848 -2.958313 -7.4144897 -4.437477 -12.697876 -4.437477z" fill-rule="evenodd"/><path stroke="#000000" stroke-width="1.0" stroke-linejoin="round" stroke-linecap="butt" d="m198.41402 34.004414c-8.90921 0 -16.664078 1.3326378 -23.264618 3.9979172c-6.585739 2.6513214 -11.632324 6.3771286 -15.1397705 11.177418c-3.4926453 4.800289 -5.238983 10.28434 -5.238983 16.452156c0 5.9166336 1.5687408 10.870422 4.7062073 14.861359c3.1374664 3.976982 6.9113007 7.12368 11.321518 9.440102c4.4102325 2.3164215 10.115387 4.7654037 17.115494 7.3469543c5.460968 2.0512924 9.686188 3.7886047 12.675659 5.2119446c3.0042725 1.4093857 5.505371 3.167633 7.503296 5.2747345c2.0127106 2.093155 3.0190735 4.597954 3.0190735 7.514412c0 4.7165604 -2.182907 8.379578 -6.5487366 10.989029c-4.365814 2.609459 -10.411362 3.9141922 -18.136642 3.9141922c-7.4588776 0 -13.260223 -0.94192505 -17.404068 -2.8257523c-4.1290283 -1.8838348 -6.1935425 -4.7514496 -6.1935425 -8.602844c0 -0.9488983 0.066604614 -1.8489532 0.19979858 -2.7001648c0.13319397 -0.86517334 0.19979858 -1.4652023 0.19979858 -1.8001099c0.26638794 -1.2977524 0.3995819 -2.7978363 0.3995819 -4.500267c0 -1.897789 -0.769577 -3.4467163 -2.3087158 -4.6467896c-1.5391235 -1.2000732 -3.537033 -1.8001099 -5.993744 -1.8001099c-3.3742523 0 -5.9271545 1.248909 -7.658676 3.7467346c-1.7167206 2.4838715 -2.5750885 6.0840836 -2.5750885 10.800652c0 8.916817 3.633255 15.538155 10.8997345 19.86399c7.281296 4.325836 16.967484 6.4887543 29.058594 6.4887543c13.645035 0 24.529968 -2.7210846 32.654816 -8.163269c8.139679 -5.4421997 12.209488 -13.221733 12.209488 -23.338623c0 -5.400322 -1.4799347 -9.942459 -4.439804 -13.626404c-2.9450836 -3.6978989 -6.5117493 -6.6143494 -10.699951 -8.749367c-4.1734314 -2.148964 -9.715805 -4.5491104 -16.627106 -7.200432c-5.727356 -2.1489716 -10.181976 -3.9909363 -13.363846 -5.525917c-3.1818542 -1.5489273 -5.8457336 -3.481598 -7.9916534 -5.7980194c-2.1311188 -2.3164215 -3.1966705 -5.1003113 -3.1966705 -8.351669c0 -4.884014 2.0645142 -8.679592 6.1935425 -11.38673c4.1438293 -2.7071419 10.122772 -4.060711 17.936844 -4.060711c5.549774 0 10.189377 0.9488945 13.918823 2.8466835c3.7294312 1.8838348 5.594162 4.6258583 5.594162 8.226078c0 0.6837616 -0.13319397 2.3094368 -0.3995819 4.877037c-0.28120422 1.3814774 -0.42178345 2.881569 -0.42178345 4.5002747c0 1.897789 0.79177856 3.5304413 2.3753052 4.8979645c1.5983276 1.3675232 3.5814362 2.0512848 5.949341 2.0512848c3.3594513 0 5.904953 -1.3675156 7.63649 -4.1025696c1.7315216 -2.7490005 2.59729 -6.8236694 2.59729 -12.223991c0 -5.4840546 -1.6649323 -10.109913 -4.9947968 -13.877583c-3.3150482 -3.7816238 -7.7474823 -6.593418 -13.297241 -8.43539c-5.534958 -1.8419724 -11.624893 -2.7629585 -18.269836 -2.7629585z" fill-rule="evenodd"/><path stroke="#000000" stroke-width="1.0" stroke-linejoin="round" stroke-linecap="butt" d="m277.66003 94.956924l-2.59729 12.998459c-1.6279297 8.567963 -3.4926453 14.526459 -5.5941772 17.875496c-2.0867004 3.3350906 -4.4028015 5.002632 -6.948303 5.002632c-1.7315369 0 -3.1226807 -0.66282654 -4.1734314 -1.9884949c-1.0359497 -1.3256683 -1.5539246 -3.279274 -1.5539246 -5.860817c0 -4.800293 0.9545593 -9.34243 2.863678 -13.626404c1.9091187 -4.2839813 4.4546204 -7.7307053 7.6364746 -10.340157c3.1818542 -2.623413 6.6375427 -3.9769897 10.366974 -4.0607147zm-1.6427307 -11.951881c-6.274933 0 -12.209503 1.8628998 -17.80365 5.588707c-5.579361 3.7258072 -10.056183 8.658661 -13.430435 14.798569c-3.3594513 6.125946 -5.0392 12.614708 -5.0392 19.466286c0 6.2654953 1.6131439 11.330925 4.8394012 15.196266c3.2262573 3.8513947 7.4292755 5.7770996 12.609085 5.7770996c6.9112854 0 11.780273 -3.6909332 14.606964 -11.072769l0 0l-0.13317871 2.0722198c0 3.167633 0.7473755 5.4631195 2.242096 6.8864594c1.4947205 1.4093933 3.7886353 2.11409 6.881714 2.11409c3.1818542 0 5.475769 -0.70469666 6.881714 -2.11409c1.4207458 -1.4233398 2.1311035 -3.7676697 2.1311035 -7.0329742c0 -5.9026794 0.2738037 -11.233238 0.8213806 -15.991669c0.5475769 -4.7584305 1.3171387 -9.754074 2.3086853 -14.986946c0.917572 -4.884018 1.3763428 -8.31678 1.3763428 -10.298294c0 -1.8838348 -0.59198 -3.335083 -1.7759094 -4.353752c-1.18396 -1.0326233 -2.8710938 -1.5489349 -5.0614014 -1.5489349c-2.0867004 0 -3.995819 0.16745758 -5.727356 0.5023575c-0.44396973 -1.8838348 -1.0063477 -3.1885605 -1.6871338 -3.9141846c-0.68078613 -0.7256317 -2.0275269 -1.08844 -4.040222 -1.08844z" fill-rule="evenodd"/><path stroke="#000000" stroke-width="1.0" stroke-linejoin="round" stroke-linecap="butt" d="m340.12714 94.956924l-4.37323 21.999c-0.81396484 4.4514313 -2.1755066 7.8772125 -4.0846252 10.277367c-1.9091187 2.4001465 -3.9070435 3.6002197 -5.993744 3.6002197c-1.9979248 0 -3.5666504 -0.64190674 -4.7062073 -1.925705c-1.1395569 -1.2837982 -1.7093201 -3.258339 -1.7093201 -5.923607c0 -4.800293 0.9545593 -9.34243 2.863678 -13.626404c1.9091187 -4.2839813 4.4546204 -7.7307053 7.6364746 -10.340157c3.1818848 -2.623413 6.637512 -3.9769897 10.366974 -4.0607147zm-9.811981 61.97815l0 0c-2.6343079 11.233246 -5.3869934 19.424438 -8.258057 24.573578c-2.8710938 5.1491547 -5.4387817 7.7237244 -7.7030945 7.7237244c-1.3615417 0 -2.3382874 -0.47444153 -2.9302673 -1.4233398c-0.59198 -0.9488983 -0.88797 -2.1489716 -0.88797 -3.6002197c0 -3.4327698 1.5465393 -7.423706 4.639618 -11.972809c3.0930786 -4.5351562 8.139648 -9.635468 15.1397705 -15.300934zm8.1692505 -73.93003c-6.274933 0 -12.209503 1.8628998 -17.80365 5.588707c-5.579376 3.7258072 -10.056183 8.658661 -13.43045 14.798569c-3.3594666 6.125946 -5.0391846 12.614708 -5.0391846 19.466286c0 6.2654953 1.679718 11.330925 5.0391846 15.196266c3.3742676 3.8513947 7.8806763 5.7770996 13.519226 5.7770996c2.4566956 0 4.928192 -0.6209717 7.4144897 -1.862915c2.5010986 -1.2419281 4.5286255 -3.021103 6.08255 -5.3375244l0 0l-0.8213501 5.0026245c-14.000214 10.200623 -23.545807 18.796478 -28.63681 25.787598c-5.0910034 6.9911194 -7.6364746 13.528732 -7.6364746 19.612823c0 4.367691 1.4503479 7.905121 4.351013 10.612274c2.9154663 2.7071228 6.689331 4.0606995 11.321533 4.0606995c9.826782 0 17.67044 -6.412018 23.531006 -19.236053c5.860565 -12.82402 10.522369 -30.29483 13.985413 -52.41246c0.3551941 -2.4001389 1.2209473 -7.3260193 2.59729 -14.777626c1.9091187 -11.065788 3.0412598 -17.924347 3.3964539 -20.57566c0.08880615 -0.6000366 0.13320923 -1.4163666 0.13320923 -2.4489899c0 -1.8838348 -0.48098755 -3.146698 -1.4429626 -3.788597c-0.94714355 -0.6418991 -2.552887 -0.9628525 -4.8171997 -0.9628525c-2.2790833 0 -4.2843933 0.16745758 -6.01593 0.5023575c-0.44396973 -1.8838348 -1.0063782 -3.1885605 -1.6871338 -3.9141846c-0.6807556 -0.7256317 -2.0274963 -1.08844 -4.040222 -1.08844z" fill-rule="evenodd"/><path stroke="#000000" stroke-width="1.0" stroke-linejoin="round" stroke-linecap="butt" d="m391.6879 95.85698c1.6279297 0 2.9154663 0.49538422 3.8626404 1.4861374c0.9619446 0.97680664 1.4429321 2.2815323 1.4429321 3.9141922c0 3.1676254 -1.5465393 5.951523 -4.639618 8.351662c-3.078247 2.4001389 -7.303467 4.2002487 -12.675659 5.4003296l0 -0.25118256c0 -5.232872 1.1617737 -9.691277 3.48526 -13.375221c2.3235168 -3.6839447 5.164978 -5.525917 8.524445 -5.525917zm2.3086853 -12.600761c-5.9049377 0 -11.203125 1.5000916 -15.894531 4.5002747c-4.6765747 3.0001755 -8.332031 7.0539093 -10.966339 12.161194c-2.6342773 5.0933304 -3.951416 10.59832 -3.951416 16.514954c0 8.400505 2.4049072 15.070671 7.214691 20.010506c4.8246155 4.925888 11.602722 7.3888245 20.33435 7.3888245c5.727356 0 10.655548 -1.02565 14.784576 -3.0769348c4.1438293 -2.0652313 7.488495 -4.9398346 10.033966 -8.623779c1.539154 -2.2326813 2.3087158 -4.8909836 2.3087158 -7.9748993c0 -1.8001022 -0.34039307 -3.2164688 -1.0211487 -4.249092c-0.68078613 -1.0326233 -1.6131287 -1.5489273 -2.7970886 -1.5489273c-1.3615417 0 -2.582489 0.6418915 -3.6628418 1.9256973c-3.1818848 3.8653488 -5.978943 6.6143494 -8.391266 8.247002c-2.4122925 1.6187134 -5.4831543 2.4280548 -9.212616 2.4280548c-5.179779 0 -8.864807 -1.9675598 -11.055115 -5.9026794c10.818329 -2.4838638 18.47702 -5.846855 22.976013 -10.088974c4.5138245 -4.2560806 6.7707214 -9.34243 6.7707214 -15.259064c0 -5.051468 -1.5909119 -9.056358 -4.7727966 -12.014679c-3.1818542 -2.958313 -7.4144897 -4.437477 -12.697876 -4.437477z" fill-rule="evenodd"/><path stroke="#000000" stroke-width="1.0" stroke-linejoin="round" stroke-linecap="butt" d="m565.3144 41.581615c1.0951538 0 2.00531 0.5581703 2.7304688 1.6745186c0.7252197 1.1163483 1.0877686 2.6582985 1.0877686 4.625862c0 8.233055 -1.7315063 14.966019 -5.19458 20.19889c-3.4482422 5.232872 -8.813049 9.2586975 -16.0943 12.077469c1.18396 -7.01902 2.7748413 -13.486855 4.772766 -19.403492c2.0127563 -5.9166336 4.1290283 -10.591335 6.348938 -14.024101c2.2347412 -3.432766 4.351013 -5.149147 6.348938 -5.149147zm37.51001 55.426594c2.5454712 0 4.7210083 1.2000732 6.5264893 3.6002197c1.8203735 2.4001465 2.7305298 5.958496 2.7305298 10.675064c0 6.0980453 -1.0655518 10.730881 -3.1967163 13.898514c-2.1311035 3.167633 -4.743164 4.7514496 -7.8362427 4.7514496c-2.7230835 0 -4.994812 -1.1582184 -6.8151245 -3.4746323c-1.8203125 -2.3164139 -2.7304688 -5.9166336 -2.7304688 -10.800652c0 -6.1678085 1.0655518 -10.814598 3.1966553 -13.940376c2.145935 -3.1397247 4.854187 -4.709587 8.124878 -4.709587zm-36.82184 -66.60401c-6.186157 0 -11.780273 2.5745754 -16.78247 7.7237225c-5.0021973 5.135193 -9.19043 11.819317 -12.564697 20.052372c-3.359436 8.233055 -5.8531494 17.059166 -7.481079 26.47834c-4.0994263 0.6000366 -9.012817 1.0326233 -14.740173 1.2977524l-13.363861 0.64888c2.1755066 -12.182137 3.2632751 -21.83155 3.2632751 -28.948261c0 -8.051647 -1.6131287 -13.982239 -4.839386 -17.79177c-3.2262878 -3.8234863 -7.79187 -5.7352295 -13.696838 -5.7352295c-6.274933 0 -12.46109 1.6954536 -18.55841 5.0863533c-6.08255 3.3769493 -11.12915 7.681858 -15.1397705 12.914734c-2.2643127 3.000183 -3.3964539 5.8329124 -3.3964539 8.498188c0 1.7024269 0.45877075 3.1118164 1.3763428 4.228161c0.9027405 1.1163406 1.990509 1.6745224 3.2632446 1.6745224c1.4503479 0 2.7674866 -0.7256317 3.9514465 -2.17688c7.9916687 -10.033161 15.176758 -15.049744 21.555298 -15.049744c2.0867004 0 3.766449 0.73260117 5.0391846 2.1978073c1.2727356 1.451252 1.9091187 4.1932755 1.9091187 8.226078c0 6.33527 -1.18396 15.552097 -3.5518494 27.650501l-7.236908 0.25118256c-3.995819 0.16744995 -6.859497 0.92098236 -8.591034 2.2605972c-1.7167358 1.3256607 -2.5750732 3.3978806 -2.5750732 6.216652c0 2.2326965 0.6807556 3.8444214 2.0422974 4.835182c1.3615417 0.976799 3.544464 1.4652023 6.5487366 1.4652023l6.548706 -0.25118256l0 0c-1.8203125 8.149338 -4.277008 18.091797 -7.3700867 29.827385c-0.45877075 1.9815063 -0.6881714 3.5304413 -0.6881714 4.6467896c0 4.967743 2.908081 7.4516144 8.724243 7.4516144c5.372162 0 9.012817 -3.732788 10.921936 -11.198349c3.2706604 -12.684486 5.816162 -23.401413 7.6364746 -32.15078c1.7315369 -0.083724976 4.957794 -0.2930374 9.6788025 -0.62794495c7.0888977 -0.51631165 13.637604 -1.2907791 19.646149 -2.3233948l0 0c-0.28118896 2.9164505 -0.42175293 5.8329086 -0.42175293 8.749367c0 12.000725 2.6342773 21.21756 7.902893 27.650497c5.283325 6.432953 12.335266 9.649429 21.1557 9.649429c8.150391 0 15.9262085 -3.3261871 23.327454 -9.978546l0 0c1.6941528 2.4195251 3.8095703 4.482834 6.3462524 6.1899414c3.7738647 2.5257263 8.3394165 3.7886047 13.696838 3.7886047c5.4609375 0 10.440979 -1.4373016 14.939941 -4.3118896c4.4990234 -2.8746033 8.065674 -6.8585663 10.699951 -11.951889c2.6342773 -5.1072845 3.951477 -10.919258 3.951477 -17.435936c0 -4.7165604 -0.95458984 -9.133102 -2.8637085 -13.249634c-1.9091187 -4.1165314 -4.772766 -7.43766 -8.591064 -9.963387c-3.8182373 -2.5257416 -8.406006 -3.7886047 -13.763367 -3.7886047c-5.5498047 0 -10.552002 1.4373016 -15.006592 4.3118896c-4.45459 2.8606415 -7.9768677 6.844597 -10.566772 11.951881c-2.5899048 5.1072845 -3.8848267 10.9122925 -3.8848267 17.415c0 1.6696396 0.119628906 3.301674 0.35882568 4.8961105l0 0c-1.8753052 1.7212906 -3.635498 3.0754776 -5.2805786 4.0625687c-3.0930786 1.8419724 -6.5043335 2.7629547 -10.233765 2.7629547c-4.262207 0 -7.5772705 -1.8838272 -9.94519 -5.651497c-2.36792 -3.7816238 -3.55188 -10.172707 -3.55188 -19.173248c0 -3.6839447 0.140625 -7.2422943 0.42181396 -10.675064c22.99823 -8.233055 34.497375 -22.98278 34.497375 -44.24918c0 -5.4840508 -1.3171997 -9.914551 -3.951477 -13.291496c-2.6342773 -3.3909035 -6.2231445 -5.086355 -10.766541 -5.086355z" fill-rule="evenodd"/><path stroke="#000000" stroke-width="1.0" stroke-linejoin="round" stroke-linecap="butt" d="m674.4215 94.956924l-4.37323 21.999c-0.81396484 4.4514313 -2.175476 7.8772125 -4.0845947 10.277367c-1.9091187 2.4001465 -3.9070435 3.6002197 -5.9937744 3.6002197c-1.9979248 0 -3.5666504 -0.64190674 -4.7061768 -1.925705c-1.1395874 -1.2837982 -1.7093506 -3.258339 -1.7093506 -5.923607c0 -4.800293 0.9545288 -9.34243 2.8636475 -13.626404c1.9091187 -4.2839813 4.454651 -7.7307053 7.6365356 -10.340157c3.1818237 -2.623413 6.637512 -3.9769897 10.366943 -4.0607147zm-9.812012 61.97815l0 0c-2.6342773 11.233246 -5.386963 19.424438 -8.258057 24.573578c-2.8710938 5.1491547 -5.4387817 7.7237244 -7.703064 7.7237244c-1.3615112 0 -2.3383179 -0.47444153 -2.9302979 -1.4233398c-0.59191895 -0.9488983 -0.88793945 -2.1489716 -0.88793945 -3.6002197c0 -3.4327698 1.5465088 -7.423706 4.6395874 -11.972809c3.0930786 -4.5351562 8.139709 -9.635468 15.1397705 -15.300934zm8.1692505 -73.93003c-6.2749023 0 -12.209473 1.8628998 -17.80365 5.588707c-5.5793457 3.7258072 -10.056152 8.658661 -13.43042 14.798569c-3.359436 6.125946 -5.0391846 12.614708 -5.0391846 19.466286c0 6.2654953 1.6797485 11.330925 5.0391846 15.196266c3.3742676 3.8513947 7.8806763 5.7770996 13.519226 5.7770996c2.456726 0 4.9282227 -0.6209717 7.4144897 -1.862915c2.5010986 -1.2419281 4.5286255 -3.021103 6.0825806 -5.3375244l0 0l-0.82141113 5.0026245c-14.000183 10.200623 -23.545776 18.796478 -28.63678 25.787598c-5.0910034 6.9911194 -7.6364746 13.528732 -7.6364746 19.612823c0 4.367691 1.4503174 7.905121 4.351013 10.612274c2.9154663 2.7071228 6.689331 4.0606995 11.321533 4.0606995c9.826782 0 17.670471 -6.412018 23.531006 -19.236053c5.8605347 -12.82402 10.522339 -30.29483 13.985413 -52.41246c0.35516357 -2.4001389 1.2209473 -7.3260193 2.59729 -14.777626c1.9091187 -11.065788 3.0412598 -17.924347 3.3964844 -20.57566c0.08874512 -0.6000366 0.13317871 -1.4163666 0.13317871 -2.4489899c0 -1.8838348 -0.48101807 -3.146698 -1.4429321 -3.788597c-0.9472046 -0.6418991 -2.5529175 -0.9628525 -4.8171997 -0.9628525c-2.2791138 0 -4.284424 0.16745758 -6.015991 0.5023575c-0.44396973 -1.8838348 -1.0063477 -3.1885605 -1.6870728 -3.9141846c-0.68078613 -0.7256317 -2.027588 -1.08844 -4.040283 -1.08844z" fill-rule="evenodd"/><path stroke="#000000" stroke-width="1.0" stroke-linejoin="round" stroke-linecap="butt" d="m716.9694 83.25622c-3.5370483 0 -6.126892 0.55817413 -7.7696533 1.6745224c-1.6279297 1.1163406 -2.9006348 2.958313 -3.8182373 5.525917c-2.086731 6.0003586 -3.5888672 11.679771 -4.5064087 17.03823c-0.902771 5.358467 -1.354126 11.254166 -1.354126 17.687119c0 5.832901 1.2949219 10.402954 3.8848267 13.710129c2.5899048 3.2932281 6.0233765 4.9398346 10.300354 4.9398346c3.4482422 0 6.6967163 -1.5838165 9.745422 -4.7514496c3.048645 -3.1815948 5.3425293 -7.7725677 6.881714 -13.772926l0 0c-0.1776123 3.2513657 -0.26641846 5.351494 -0.26641846 6.300377c0 4.800293 0.65856934 8.037689 1.975708 9.712219c1.3171387 1.6745148 3.6628418 2.5117798 7.0371094 2.5117798c3.1818848 0 5.475769 -0.70469666 6.881714 -2.11409c1.4059448 -1.4233398 2.1088867 -3.7676697 2.1088867 -7.0329742c0 -5.7352295 0.2738037 -10.849495 0.82141113 -15.342789c0.5475464 -4.5072556 1.2727661 -9.502899 2.175476 -14.986954c0.45880127 -2.7490005 0.8657837 -5.4282303 1.2209473 -8.037689c0.36999512 -2.623413 0.5549927 -5.002632 0.5549927 -7.137642c0 -1.981514 -0.43658447 -3.460678 -1.3097534 -4.437477c-0.8583374 -0.9907532 -2.286499 -1.4861374 -4.284424 -1.4861374c-2.989441 0 -5.2389526 0.55817413 -6.748535 1.6745224c-1.49469 1.1163406 -2.6046753 2.958313 -3.329834 5.525917c-2.1015015 7.4516068 -4.314026 13.814781 -6.637512 19.089523c-2.3087158 5.2747345 -4.513794 9.223808 -6.6153564 11.847221c-2.08667 2.609459 -3.810791 3.9141922 -5.1723633 3.9141922c-0.99157715 0 -1.7167358 -0.36281586 -2.175476 -1.08844c-0.45880127 -0.7256241 -0.6881714 -1.9884949 -0.6881714 -3.788597c0 -3.0141373 0.91015625 -9.021477 2.7304688 -18.022018c0.5475464 -2.5675964 1.2727661 -5.435211 2.175476 -8.602844c1.0063477 -3.9490814 1.5095825 -6.2654953 1.5095825 -6.949257c0 -1.2000732 -0.38482666 -2.1001282 -1.1543579 -2.7001648c-0.7695923 -0.6000366 -2.1607666 -0.90005493 -4.173462 -0.90005493z" fill-rule="evenodd"/><path stroke="#000000" stroke-width="1.0" stroke-linejoin="round" stroke-linecap="butt" d="m788.7221 95.85698c1.6279297 0 2.9154663 0.49538422 3.862671 1.4861374c0.96191406 0.97680664 1.4429321 2.2815323 1.4429321 3.9141922c0 3.1676254 -1.5465698 5.951523 -4.6395874 8.351662c-3.078308 2.4001389 -7.303528 4.2002487 -12.67572 5.4003296l0 -0.25118256c0 -5.232872 1.1617432 -9.691277 3.4852905 -13.375221c2.3234863 -3.6839447 5.164978 -5.525917 8.524414 -5.525917zm2.3087158 -12.600761c-5.9049683 0 -11.203125 1.5000916 -15.894531 4.5002747c-4.6766357 3.0001755 -8.332092 7.0539093 -10.966309 12.161194c-2.6343384 5.0933304 -3.951477 10.59832 -3.951477 16.514954c0 8.400505 2.4049072 15.070671 7.2147217 20.010506c4.824585 4.925888 11.602661 7.3888245 20.33435 7.3888245c5.727356 0 10.655518 -1.02565 14.784546 -3.0769348c4.14386 -2.0652313 7.4885254 -4.9398346 10.033997 -8.623779c1.5391235 -2.2326813 2.3087158 -4.8909836 2.3087158 -7.9748993c0 -1.8001022 -0.34039307 -3.2164688 -1.0211792 -4.249092c-0.68078613 -1.0326233 -1.6130981 -1.5489273 -2.797058 -1.5489273c-1.3615723 0 -2.5825195 0.6418915 -3.6628418 1.9256973c-3.1818848 3.8653488 -5.978943 6.6143494 -8.391235 8.247002c-2.4123535 1.6187134 -5.4832153 2.4280548 -9.2126465 2.4280548c-5.1797485 0 -8.864807 -1.9675598 -11.055115 -5.9026794c10.818298 -2.4838638 18.47699 -5.846855 22.976013 -10.088974c4.513794 -4.2560806 6.770691 -9.34243 6.770691 -15.259064c0 -5.051468 -1.5908813 -9.056358 -4.772766 -12.014679c-3.1818848 -2.958313 -7.4144897 -4.437477 -12.697876 -4.437477z" fill-rule="evenodd"/></g></g></svg>