<svg version="1.1" viewBox="0.0 0.0 935.8530183727034 216.23097112860893" fill="none" stroke="none" stroke-linecap="square" stroke-miterlimit="10" xmlns:xlink="http://www.w3.org/1999/xlink" xmlns="http://www.w3.org/2000/svg"><clipPath id="p.0"><path d="m0 0l935.853 0l0 216.23097l-935.853 0l0 -216.23097z" clip-rule="nonzero"/></clipPath><g clip-path="url(#p.0)"><path fill="#000000" fill-opacity="0.0" d="m0 0l935.853 0l0 216.23097l-935.853 0z" fill-rule="evenodd"/><g mask="url(#mask-p.1)"><use xlink:href="#p.1" transform="matrix(1.0 0.0 0.0 -1.0 0.0 275.99946358251725)"/></g><defs><mask id="mask-p.1" maskUnits="userSpaceOnUse" x="95.2953201116342" y="147.49973179125863" width="747.5561289900232" height="129.00007849409673"><linearGradient gradientUnits="userSpaceOnUse" id="gradient-p.1" x1="95.2953201214304" y1="147.49702564549006" x2="95.29508662703026" y2="211.9984179645775"><stop offset="0%" stop-color="#ffffff" stop-opacity="0.6499999761581421"/><stop offset="100%" stop-color="#ffffff" stop-opacity="0.0"/></linearGradient><rect fill="url(#gradient-p.1)" x="95.2953201116342" y="147.49973179125863" width="747.5561289900232" height="129.00007849409673"/></mask></defs><g id="p.1"><path fill="#000000" fill-opacity="0.0" d="m133.88899 -3.4670284E-4c-6.5709305 0 -12.542496 1.1099555 -17.91468 3.3298666c-5.3721848 2.2199113 -9.456818 5.4757795 -12.253906 9.767609c-2.7970886 4.277032 -4.195633 8.879645 -4.195633 13.807847c0 4.4842205 1.1395645 8.539261 3.418663 12.165115c2.2938995 3.6110573 5.7717667 6.637535 10.4335785 9.079437c3.59626 1.9091225 9.878609 3.9440422 18.847046 6.1047554c8.968445 2.145916 14.762405 3.7294502 17.381912 4.7506104c4.0846252 1.553936 7.014908 3.4778557 8.790848 5.7717705c1.7759247 2.2790985 2.6638947 4.9504013 2.6638947 8.013878c0 3.019081 -0.92497253 5.8087616 -2.7749023 8.369064c-1.8351288 2.545494 -4.6396027 4.5508194 -8.413452 6.0159607c-3.7738495 1.4651413 -8.124878 2.1977081 -13.053085 2.1977081c-5.549774 0 -10.544571 -0.96195984 -14.984398 -2.8858795c-4.4398193 -1.9387283 -7.7178955 -4.469429 -9.834206 -7.592102c-2.1015244 -3.137474 -3.4408646 -7.1481094 -4.018036 -12.031914l-12.187317 1.0655518c0.17759705 6.5265427 1.9609375 12.379707 5.349991 17.559502c3.4038773 5.1649857 8.087891 9.035034 14.052032 11.610138c5.978958 2.5750961 13.386063 3.8626404 22.221313 3.8626404c6.97052 0 13.238068 -1.2727509 18.802643 -3.818245c5.579376 -2.5603027 9.856415 -6.1343613 12.831085 -10.722176c2.9746857 -4.6026154 4.462021 -9.501213 4.462021 -14.695808c0 -5.238991 -1.3541412 -9.863808 -4.0624237 -13.874443c-2.7082977 -4.02544 -6.9039307 -7.347908 -12.586899 -9.967403c-3.9070435 -1.7759285 -11.114365 -3.8478432 -21.621933 -6.2157516c-10.492798 -2.3827019 -16.98233 -4.706211 -19.468628 -6.97052c-2.5307007 -2.264309 -3.796051 -5.150194 -3.796051 -8.657654c0 -4.0402374 1.7833252 -7.4884987 5.349991 -10.344786c3.5814438 -2.8710861 9.279228 -4.306628 17.093307 -4.306628c7.503311 0 13.171478 1.5761375 17.004532 4.7284117c3.8478394 3.1522732 6.1047516 7.814087 6.7707214 13.985439l12.3871 -0.9323616c-0.22198486 -5.727371 -1.8203278 -10.855366 -4.794998 -15.383985c-2.9746857 -4.528619 -7.2295227 -7.9546833 -12.764496 -10.278189c-5.5201874 -2.3383074 -11.898727 -3.5074596 -19.135635 -3.5074596z" fill-rule="evenodd"/><path fill="#000000" fill-opacity="0.0" d="m234.78397 63.7999l0 4.3954277c0 5.283386 -0.64378357 9.279228 -1.9313354 11.987518c-1.6871338 3.5074615 -4.328827 6.2749405 -7.9250793 8.302467c-3.5962524 2.0127182 -7.7030945 3.019081 -12.320511 3.019081c-4.661804 0 -8.206268 -1.0655594 -10.633362 -3.1966782c-2.412323 -2.1311111 -3.6184692 -4.795006 -3.6184692 -7.9916763c0 -2.0867157 0.5549774 -3.981041 1.6649475 -5.682976c1.1099548 -1.7167358 2.686081 -3.0190735 4.728409 -3.9070435c2.0423126 -0.88796234 5.5275726 -1.6871262 10.45578 -2.397499c8.702042 -1.2431564 15.228592 -2.7526932 19.57962 -4.5286217zm-15.250793 -36.828323c-6.0825653 0 -11.432541 0.8361683 -16.049957 2.5084991c-4.6174164 1.6575356 -8.147079 4.032839 -10.588974 7.1259136c-2.4419098 3.0782814 -4.195633 7.1259155 -5.2612 12.142914l11.72113 1.5983391c1.2875519 -5.017002 3.2706604 -8.509659 5.9493713 -10.477982c2.6934814 -1.98312 6.8595276 -2.9746819 12.498093 -2.9746819c6.038162 0 10.588974 1.354145 13.652451 4.062439c2.2643127 1.9979172 3.396469 5.4387817 3.396469 10.322586c0 0.44398117 -0.022201538 1.487339 -0.066589355 3.1300735c-4.5730286 1.5983353 -11.698944 2.9746819 -21.377747 4.129036c-4.7506104 0.57717514 -8.302475 1.1765518 -10.655579 1.7981262c-3.1966705 0.88796616 -6.075165 2.197712 -8.635452 3.929245c-2.5455017 1.7315292 -4.610031 4.032837 -6.1935577 6.903923c-1.5687408 2.856285 -2.3531036 6.0159607 -2.3531036 9.479019c0 5.9049683 2.0867157 10.759171 6.260147 14.562622c4.1734314 3.788643 10.145004 5.682968 17.914688 5.682968c4.7062073 0 9.109024 -0.7769699 13.208466 -2.330902c4.1142273 -1.5539398 8.391266 -4.2178345 12.831085 -7.991684c0.3551941 3.3298645 1.1543579 6.237953 2.3975067 8.724251l12.520309 0c-1.509552 -2.70829 -2.5233154 -5.534981 -3.0412903 -8.480057c-0.5031891 -2.9598923 -0.75476074 -10.011803 -0.75476074 -21.155754l0 -15.983364c0 -5.3277855 -0.19979858 -9.01284 -0.5993805 -11.055157c-0.7103729 -3.285469 -1.9535217 -6.0011597 -3.7294464 -8.147076c-1.77594 -2.1607094 -4.550827 -3.9514408 -8.3246765 -5.372183c-3.7738495 -1.420744 -8.67984 -2.131115 -14.718002 -2.131115z" fill-rule="evenodd"/><path fill="#000000" fill-opacity="0.0" d="m292.39066 36.894577c5.4165955 0 10.041412 2.197712 13.874451 6.593136c3.8478394 4.395424 5.771759 10.921963 5.771759 19.579617c0 9.057236 -1.8647156 15.709572 -5.5941772 19.957c-3.7294617 4.232628 -8.346863 6.3489456 -13.852234 6.3489456c-5.549774 0 -10.167206 -2.1311111 -13.852264 -6.393341c-3.685028 -4.26223 -5.5275574 -11.032959 -5.5275574 -20.312187c0 -8.52446 1.8647156 -14.947403 5.5941772 -19.26883c3.7294312 -4.3362274 8.258057 -6.504341 13.585846 -6.504341zm-0.8657532 -9.923002c-6.2601624 0 -11.713745 1.5539379 -16.360748 4.6618137c-4.6322327 3.1078758 -8.169281 7.5181007 -10.611176 13.230671c-2.441925 5.697773 -3.6628723 11.920921 -3.6628723 18.669453c0 9.812008 2.66391 18.225468 7.991699 25.24039c5.3277893 7.0149155 12.8532715 10.522377 22.576477 10.522377c7.814087 0 14.340637 -3.085678 19.57962 -9.257027l0 0c0.044403076 7.814087 -0.24417114 12.942078 -0.8657532 15.38398c-1.0655518 3.995842 -3.1078796 7.1037216 -6.126953 9.323631c-3.0190735 2.2199097 -7.303528 3.3298645 -12.853302 3.3298645c-5.150177 0 -9.212616 -1.1099548 -12.187317 -3.3298645c-2.2199097 -1.6427383 -3.5740356 -4.26223 -4.062439 -7.85849l-11.6545105 -1.7315292l0 0c-0.1776123 7.6364975 2.330902 13.349068 7.525482 17.137718c5.1946106 3.8034515 12.009735 5.7051697 20.445404 5.7051697c7.1036987 0 13.082672 -1.3319473 17.93686 -3.995842c4.8690186 -2.6638947 8.420868 -6.297142 10.655579 -10.899765c2.2495117 -4.5878143 3.3742676 -12.3871 3.3742676 -23.397865l0 -61.136353l-11.055145 0l0 8.524458c-5.4165955 -6.7485294 -12.298309 -10.122793 -20.645172 -10.122793z" fill-rule="evenodd"/><path fill="#000000" fill-opacity="0.0" d="m370.50934 36.82798c6.08255 0 11.032959 2.3087082 14.851196 6.9261208c2.4862976 2.9746819 3.9958496 7.4367027 4.5286255 13.386066l-39.492218 0c0.39956665 -6.1713524 2.4714966 -11.099556 6.2157288 -14.784607c3.7590637 -3.6850548 8.391266 -5.5275803 13.8966675 -5.5275803zm-0.13320923 -9.856405c-9.767609 0 -17.714874 3.2854671 -23.841827 9.856405c-6.1269836 6.570938 -9.19046 15.805767 -9.19046 27.70449c0 11.499138 3.0264893 20.43798 9.079437 26.816528c6.0677795 6.363739 14.274048 9.545616 24.618835 9.545616c8.213654 0 14.962189 -1.9979172 20.245575 -5.993759c5.283386 -3.995842 8.901855 -9.612213 10.855377 -16.849129l-12.3871155 -1.5317383c-1.8203125 5.0614014 -4.284424 8.746452 -7.3923035 11.0551605c-3.1078796 2.3087082 -6.8595276 3.4630585 -11.254944 3.4630585c-5.9049683 0 -10.83316 -2.0645142 -14.784607 -6.19355c-3.9514465 -4.129036 -6.14917 -10.0784 -6.5931396 -17.848083l52.745087 0c0.044403076 -1.4207458 0.066589355 -2.4863052 0.066589355 -3.1966743c0 -11.676731 -2.9968567 -20.73397 -8.990631 -27.171711c-5.993744 -6.437744 -13.719055 -9.656614 -23.175873 -9.656614z" fill-rule="evenodd"/><path fill="#000000" fill-opacity="0.0" d="m457.01926 1.6645867l0 97.63169l12.919891 0l0 -46.018757l50.747192 0l0 46.018757l12.919861 0l0 -97.63169l-12.919861 0l0 40.0916l-50.747192 0l0 -40.0916z" fill-rule="evenodd"/><path fill="#000000" fill-opacity="0.0" d="m582.2889 36.894577c5.9049683 0 10.840515 2.2569122 14.806763 6.770729c3.981079 4.4990234 5.9715576 11.121754 5.9715576 19.868206c0 9.279224 -1.975708 16.183155 -5.927124 20.711773c-3.951477 4.528618 -8.901855 6.792923 -14.851196 6.792923c-5.9937744 0 -10.96637 -2.2495117 -14.917847 -6.7485275c-3.951416 -4.5138245 -5.927124 -11.299347 -5.927124 -20.356586c0 -9.057236 1.975708 -15.827965 5.927124 -20.312187c3.951477 -4.4842186 8.924072 -6.72633 14.917847 -6.72633zm0 -9.923002c-8.74646 0 -16.16095 2.6194954 -22.24353 7.8584843c-7.281311 6.30455 -10.921997 16.005562 -10.921997 29.103035c0 11.943127 3.048706 21.08916 9.146057 27.438107c6.1121826 6.3489456 14.118652 9.523415 24.01947 9.523415c6.1713257 0 11.861694 -1.4429398 17.071106 -4.328827c5.224182 -2.8858795 9.197815 -6.933525 11.920898 -12.142914c2.737915 -5.2241974 4.1068726 -12.3871 4.1068726 -21.488739c0 -11.23275 -3.0856934 -20.030998 -9.25708 -26.394745c-6.1713257 -6.378542 -14.118591 -9.567816 -23.841797 -9.567816z" fill-rule="evenodd"/><path fill="#000000" fill-opacity="0.0" d="m656.3451 36.894577c5.416565 0 10.041382 2.197712 13.874451 6.593136c3.8478394 4.395424 5.7717896 10.921963 5.7717896 19.579617c0 9.057236 -1.8647461 15.709572 -5.5941772 19.957c-3.7294922 4.232628 -8.346863 6.3489456 -13.852295 6.3489456c-5.5497437 0 -10.167175 -2.1311111 -13.852234 -6.393341c-3.6850586 -4.26223 -5.527588 -11.032959 -5.527588 -20.312187c0 -8.52446 1.8647461 -14.947403 5.5941772 -19.26883c3.7294922 -4.3362274 8.258118 -6.504341 13.585876 -6.504341zm-0.8657837 -9.923002c-6.260132 0 -11.713684 1.5539379 -16.360718 4.6618137c-4.632202 3.1078758 -8.169312 7.5181007 -10.611206 13.230671c-2.4418945 5.697773 -3.6628418 11.920921 -3.6628418 18.669453c0 9.812008 2.6638794 18.225468 7.991699 25.24039c5.327759 7.0149155 12.8532715 10.522377 22.576477 10.522377c7.814087 0 14.340637 -3.085678 19.57965 -9.257027l0 0c0.04437256 7.814087 -0.24420166 12.942078 -0.8657837 15.38398c-1.0655518 3.995842 -3.1079102 7.1037216 -6.126953 9.323631c-3.019104 2.2199097 -7.303528 3.3298645 -12.8532715 3.3298645c-5.1502075 0 -9.2126465 -1.1099548 -12.187317 -3.3298645c-2.2199097 -1.6427383 -3.5740967 -4.26223 -4.062439 -7.85849l-11.654541 -1.7315292l0 0c-0.1776123 7.6364975 2.3308716 13.349068 7.5255127 17.137718c5.19458 3.8034515 12.009705 5.7051697 20.445374 5.7051697c7.1036987 0 13.082642 -1.3319473 17.93689 -3.995842c4.8689575 -2.6638947 8.420837 -6.297142 10.655579 -10.899765c2.2494507 -4.5878143 3.3742676 -12.3871 3.3742676 -23.397865l0 -61.136353l-11.055176 0l0 8.524458c-5.416565 -6.7485294 -12.29834 -10.122793 -20.645203 -10.122793z" fill-rule="evenodd"/><path fill="#000000" fill-opacity="0.0" d="m705.0278 28.56991l0 43.821045c0 5.105797 0.24414062 8.835251 0.73254395 11.1883545c0.7103882 3.5074615 1.9387207 6.474739 3.6850586 8.901848c1.7611084 2.4123 4.4472046 4.417618 8.058289 6.015953c3.6258545 1.5983429 7.5254517 2.3975067 11.698914 2.3975067c9.456848 0 16.937927 -3.995842 22.443298 -11.987518l0 10.389183l10.722168 0l0 -70.72637l-11.987488 0l0 37.893883c0 6.038162 -0.6586304 10.64817 -1.975769 13.830048c-1.3023071 3.1670685 -3.529663 5.6755676 -6.681885 7.5254974c-3.1522827 1.8351288 -6.5265503 2.7526932 -10.122803 2.7526932c-3.5962524 0 -6.6153564 -0.8953705 -9.057251 -2.6860886c-2.4418945 -1.8055344 -4.040222 -4.2844315 -4.794983 -7.4367065c-0.48840332 -2.1755142 -0.732605 -6.393341 -0.732605 -12.653496l0 -39.22583z" fill-rule="evenodd"/><path fill="#000000" fill-opacity="0.0" d="m810.3181 36.82798c6.0825806 0 11.032959 2.3087082 14.851196 6.9261208c2.4863281 2.9746819 3.9958496 7.4367027 4.5286255 13.386066l-39.492188 0c0.39959717 -6.1713524 2.4714966 -11.099556 6.2157593 -14.784607c3.7590332 -3.6850548 8.391235 -5.5275803 13.896606 -5.5275803zm-0.13317871 -9.856405c-9.767639 0 -17.714905 3.2854671 -23.841858 9.856405c-6.126953 6.570938 -9.19043 15.805767 -9.19043 27.70449c0 11.499138 3.0264893 20.43798 9.079468 26.816528c6.067749 6.363739 14.273987 9.545616 24.618774 9.545616c8.213684 0 14.962219 -1.9979172 20.245605 -5.993759c5.283386 -3.995842 8.901855 -9.612213 10.855347 -16.849129l-12.387085 -1.5317383c-1.8203125 5.0614014 -4.284424 8.746452 -7.392273 11.0551605c-3.1079102 2.3087082 -6.859558 3.4630585 -11.255005 3.4630585c-5.904907 0 -10.83313 -2.0645142 -14.784607 -6.19355c-3.951416 -4.129036 -6.149109 -10.0784 -6.5931396 -17.848083l52.745117 0c0.04437256 -1.4207458 0.066589355 -2.4863052 0.066589355 -3.1966743c0 -11.676731 -2.9968872 -20.73397 -8.990662 -27.171711c-5.9937134 -6.437744 -13.718994 -9.656614 -23.175842 -9.656614z" fill-rule="evenodd"/><path stroke="#b7b7b7" stroke-width="1.0" stroke-linejoin="round" stroke-linecap="butt" d="m133.88899 -3.4670284E-4c-6.5709305 0 -12.542496 1.1099555 -17.91468 3.3298666c-5.3721848 2.2199113 -9.456818 5.4757795 -12.253906 9.767609c-2.7970886 4.277032 -4.195633 8.879645 -4.195633 13.807847c0 4.4842205 1.1395645 8.539261 3.418663 12.165115c2.2938995 3.6110573 5.7717667 6.637535 10.4335785 9.079437c3.59626 1.9091225 9.878609 3.9440422 18.847046 6.1047554c8.968445 2.145916 14.762405 3.7294502 17.381912 4.7506104c4.0846252 1.553936 7.014908 3.4778557 8.790848 5.7717705c1.7759247 2.2790985 2.6638947 4.9504013 2.6638947 8.013878c0 3.019081 -0.92497253 5.8087616 -2.7749023 8.369064c-1.8351288 2.545494 -4.6396027 4.5508194 -8.413452 6.0159607c-3.7738495 1.4651413 -8.124878 2.1977081 -13.053085 2.1977081c-5.549774 0 -10.544571 -0.96195984 -14.984398 -2.8858795c-4.4398193 -1.9387283 -7.7178955 -4.469429 -9.834206 -7.592102c-2.1015244 -3.137474 -3.4408646 -7.1481094 -4.018036 -12.031914l-12.187317 1.0655518c0.17759705 6.5265427 1.9609375 12.379707 5.349991 17.559502c3.4038773 5.1649857 8.087891 9.035034 14.052032 11.610138c5.978958 2.5750961 13.386063 3.8626404 22.221313 3.8626404c6.97052 0 13.238068 -1.2727509 18.802643 -3.818245c5.579376 -2.5603027 9.856415 -6.1343613 12.831085 -10.722176c2.9746857 -4.6026154 4.462021 -9.501213 4.462021 -14.695808c0 -5.238991 -1.3541412 -9.863808 -4.0624237 -13.874443c-2.7082977 -4.02544 -6.9039307 -7.347908 -12.586899 -9.967403c-3.9070435 -1.7759285 -11.114365 -3.8478432 -21.621933 -6.2157516c-10.492798 -2.3827019 -16.98233 -4.706211 -19.468628 -6.97052c-2.5307007 -2.264309 -3.796051 -5.150194 -3.796051 -8.657654c0 -4.0402374 1.7833252 -7.4884987 5.349991 -10.344786c3.5814438 -2.8710861 9.279228 -4.306628 17.093307 -4.306628c7.503311 0 13.171478 1.5761375 17.004532 4.7284117c3.8478394 3.1522732 6.1047516 7.814087 6.7707214 13.985439l12.3871 -0.9323616c-0.22198486 -5.727371 -1.8203278 -10.855366 -4.794998 -15.383985c-2.9746857 -4.528619 -7.2295227 -7.9546833 -12.764496 -10.278189c-5.5201874 -2.3383074 -11.898727 -3.5074596 -19.135635 -3.5074596z" fill-rule="evenodd"/><path stroke="#b7b7b7" stroke-width="1.0" stroke-linejoin="round" stroke-linecap="butt" d="m234.78397 63.7999l0 4.3954277c0 5.283386 -0.64378357 9.279228 -1.9313354 11.987518c-1.6871338 3.5074615 -4.328827 6.2749405 -7.9250793 8.302467c-3.5962524 2.0127182 -7.7030945 3.019081 -12.320511 3.019081c-4.661804 0 -8.206268 -1.0655594 -10.633362 -3.1966782c-2.412323 -2.1311111 -3.6184692 -4.795006 -3.6184692 -7.9916763c0 -2.0867157 0.5549774 -3.981041 1.6649475 -5.682976c1.1099548 -1.7167358 2.686081 -3.0190735 4.728409 -3.9070435c2.0423126 -0.88796234 5.5275726 -1.6871262 10.45578 -2.397499c8.702042 -1.2431564 15.228592 -2.7526932 19.57962 -4.5286217zm-15.250793 -36.828323c-6.0825653 0 -11.432541 0.8361683 -16.049957 2.5084991c-4.6174164 1.6575356 -8.147079 4.032839 -10.588974 7.1259136c-2.4419098 3.0782814 -4.195633 7.1259155 -5.2612 12.142914l11.72113 1.5983391c1.2875519 -5.017002 3.2706604 -8.509659 5.9493713 -10.477982c2.6934814 -1.98312 6.8595276 -2.9746819 12.498093 -2.9746819c6.038162 0 10.588974 1.354145 13.652451 4.062439c2.2643127 1.9979172 3.396469 5.4387817 3.396469 10.322586c0 0.44398117 -0.022201538 1.487339 -0.066589355 3.1300735c-4.5730286 1.5983353 -11.698944 2.9746819 -21.377747 4.129036c-4.7506104 0.57717514 -8.302475 1.1765518 -10.655579 1.7981262c-3.1966705 0.88796616 -6.075165 2.197712 -8.635452 3.929245c-2.5455017 1.7315292 -4.610031 4.032837 -6.1935577 6.903923c-1.5687408 2.856285 -2.3531036 6.0159607 -2.3531036 9.479019c0 5.9049683 2.0867157 10.759171 6.260147 14.562622c4.1734314 3.788643 10.145004 5.682968 17.914688 5.682968c4.7062073 0 9.109024 -0.7769699 13.208466 -2.330902c4.1142273 -1.5539398 8.391266 -4.2178345 12.831085 -7.991684c0.3551941 3.3298645 1.1543579 6.237953 2.3975067 8.724251l12.520309 0c-1.509552 -2.70829 -2.5233154 -5.534981 -3.0412903 -8.480057c-0.5031891 -2.9598923 -0.75476074 -10.011803 -0.75476074 -21.155754l0 -15.983364c0 -5.3277855 -0.19979858 -9.01284 -0.5993805 -11.055157c-0.7103729 -3.285469 -1.9535217 -6.0011597 -3.7294464 -8.147076c-1.77594 -2.1607094 -4.550827 -3.9514408 -8.3246765 -5.372183c-3.7738495 -1.420744 -8.67984 -2.131115 -14.718002 -2.131115z" fill-rule="evenodd"/><path stroke="#b7b7b7" stroke-width="1.0" stroke-linejoin="round" stroke-linecap="butt" d="m292.39066 36.894577c5.4165955 0 10.041412 2.197712 13.874451 6.593136c3.8478394 4.395424 5.771759 10.921963 5.771759 19.579617c0 9.057236 -1.8647156 15.709572 -5.5941772 19.957c-3.7294617 4.232628 -8.346863 6.3489456 -13.852234 6.3489456c-5.549774 0 -10.167206 -2.1311111 -13.852264 -6.393341c-3.685028 -4.26223 -5.5275574 -11.032959 -5.5275574 -20.312187c0 -8.52446 1.8647156 -14.947403 5.5941772 -19.26883c3.7294312 -4.3362274 8.258057 -6.504341 13.585846 -6.504341zm-0.8657532 -9.923002c-6.2601624 0 -11.713745 1.5539379 -16.360748 4.6618137c-4.6322327 3.1078758 -8.169281 7.5181007 -10.611176 13.230671c-2.441925 5.697773 -3.6628723 11.920921 -3.6628723 18.669453c0 9.812008 2.66391 18.225468 7.991699 25.24039c5.3277893 7.0149155 12.8532715 10.522377 22.576477 10.522377c7.814087 0 14.340637 -3.085678 19.57962 -9.257027l0 0c0.044403076 7.814087 -0.24417114 12.942078 -0.8657532 15.38398c-1.0655518 3.995842 -3.1078796 7.1037216 -6.126953 9.323631c-3.0190735 2.2199097 -7.303528 3.3298645 -12.853302 3.3298645c-5.150177 0 -9.212616 -1.1099548 -12.187317 -3.3298645c-2.2199097 -1.6427383 -3.5740356 -4.26223 -4.062439 -7.85849l-11.6545105 -1.7315292l0 0c-0.1776123 7.6364975 2.330902 13.349068 7.525482 17.137718c5.1946106 3.8034515 12.009735 5.7051697 20.445404 5.7051697c7.1036987 0 13.082672 -1.3319473 17.93686 -3.995842c4.8690186 -2.6638947 8.420868 -6.297142 10.655579 -10.899765c2.2495117 -4.5878143 3.3742676 -12.3871 3.3742676 -23.397865l0 -61.136353l-11.055145 0l0 8.524458c-5.4165955 -6.7485294 -12.298309 -10.122793 -20.645172 -10.122793z" fill-rule="evenodd"/><path stroke="#b7b7b7" stroke-width="1.0" stroke-linejoin="round" stroke-linecap="butt" d="m370.50934 36.82798c6.08255 0 11.032959 2.3087082 14.851196 6.9261208c2.4862976 2.9746819 3.9958496 7.4367027 4.5286255 13.386066l-39.492218 0c0.39956665 -6.1713524 2.4714966 -11.099556 6.2157288 -14.784607c3.7590637 -3.6850548 8.391266 -5.5275803 13.8966675 -5.5275803zm-0.13320923 -9.856405c-9.767609 0 -17.714874 3.2854671 -23.841827 9.856405c-6.1269836 6.570938 -9.19046 15.805767 -9.19046 27.70449c0 11.499138 3.0264893 20.43798 9.079437 26.816528c6.0677795 6.363739 14.274048 9.545616 24.618835 9.545616c8.213654 0 14.962189 -1.9979172 20.245575 -5.993759c5.283386 -3.995842 8.901855 -9.612213 10.855377 -16.849129l-12.3871155 -1.5317383c-1.8203125 5.0614014 -4.284424 8.746452 -7.3923035 11.0551605c-3.1078796 2.3087082 -6.8595276 3.4630585 -11.254944 3.4630585c-5.9049683 0 -10.83316 -2.0645142 -14.784607 -6.19355c-3.9514465 -4.129036 -6.14917 -10.0784 -6.5931396 -17.848083l52.745087 0c0.044403076 -1.4207458 0.066589355 -2.4863052 0.066589355 -3.1966743c0 -11.676731 -2.9968567 -20.73397 -8.990631 -27.171711c-5.993744 -6.437744 -13.719055 -9.656614 -23.175873 -9.656614z" fill-rule="evenodd"/><path stroke="#b7b7b7" stroke-width="1.0" stroke-linejoin="round" stroke-linecap="butt" d="m457.01926 1.6645867l0 97.63169l12.919891 0l0 -46.018757l50.747192 0l0 46.018757l12.919861 0l0 -97.63169l-12.919861 0l0 40.0916l-50.747192 0l0 -40.0916z" fill-rule="evenodd"/><path stroke="#b7b7b7" stroke-width="1.0" stroke-linejoin="round" stroke-linecap="butt" d="m582.2889 36.894577c5.9049683 0 10.840515 2.2569122 14.806763 6.770729c3.981079 4.4990234 5.9715576 11.121754 5.9715576 19.868206c0 9.279224 -1.975708 16.183155 -5.927124 20.711773c-3.951477 4.528618 -8.901855 6.792923 -14.851196 6.792923c-5.9937744 0 -10.96637 -2.2495117 -14.917847 -6.7485275c-3.951416 -4.5138245 -5.927124 -11.299347 -5.927124 -20.356586c0 -9.057236 1.975708 -15.827965 5.927124 -20.312187c3.951477 -4.4842186 8.924072 -6.72633 14.917847 -6.72633zm0 -9.923002c-8.74646 0 -16.16095 2.6194954 -22.24353 7.8584843c-7.281311 6.30455 -10.921997 16.005562 -10.921997 29.103035c0 11.943127 3.048706 21.08916 9.146057 27.438107c6.1121826 6.3489456 14.118652 9.523415 24.01947 9.523415c6.1713257 0 11.861694 -1.4429398 17.071106 -4.328827c5.224182 -2.8858795 9.197815 -6.933525 11.920898 -12.142914c2.737915 -5.2241974 4.1068726 -12.3871 4.1068726 -21.488739c0 -11.23275 -3.0856934 -20.030998 -9.25708 -26.394745c-6.1713257 -6.378542 -14.118591 -9.567816 -23.841797 -9.567816z" fill-rule="evenodd"/><path stroke="#b7b7b7" stroke-width="1.0" stroke-linejoin="round" stroke-linecap="butt" d="m656.3451 36.894577c5.416565 0 10.041382 2.197712 13.874451 6.593136c3.8478394 4.395424 5.7717896 10.921963 5.7717896 19.579617c0 9.057236 -1.8647461 15.709572 -5.5941772 19.957c-3.7294922 4.232628 -8.346863 6.3489456 -13.852295 6.3489456c-5.5497437 0 -10.167175 -2.1311111 -13.852234 -6.393341c-3.6850586 -4.26223 -5.527588 -11.032959 -5.527588 -20.312187c0 -8.52446 1.8647461 -14.947403 5.5941772 -19.26883c3.7294922 -4.3362274 8.258118 -6.504341 13.585876 -6.504341zm-0.8657837 -9.923002c-6.260132 0 -11.713684 1.5539379 -16.360718 4.6618137c-4.632202 3.1078758 -8.169312 7.5181007 -10.611206 13.230671c-2.4418945 5.697773 -3.6628418 11.920921 -3.6628418 18.669453c0 9.812008 2.6638794 18.225468 7.991699 25.24039c5.327759 7.0149155 12.8532715 10.522377 22.576477 10.522377c7.814087 0 14.340637 -3.085678 19.57965 -9.257027l0 0c0.04437256 7.814087 -0.24420166 12.942078 -0.8657837 15.38398c-1.0655518 3.995842 -3.1079102 7.1037216 -6.126953 9.323631c-3.019104 2.2199097 -7.303528 3.3298645 -12.8532715 3.3298645c-5.1502075 0 -9.2126465 -1.1099548 -12.187317 -3.3298645c-2.2199097 -1.6427383 -3.5740967 -4.26223 -4.062439 -7.85849l-11.654541 -1.7315292l0 0c-0.1776123 7.6364975 2.3308716 13.349068 7.5255127 17.137718c5.19458 3.8034515 12.009705 5.7051697 20.445374 5.7051697c7.1036987 0 13.082642 -1.3319473 17.93689 -3.995842c4.8689575 -2.6638947 8.420837 -6.297142 10.655579 -10.899765c2.2494507 -4.5878143 3.3742676 -12.3871 3.3742676 -23.397865l0 -61.136353l-11.055176 0l0 8.524458c-5.416565 -6.7485294 -12.29834 -10.122793 -20.645203 -10.122793z" fill-rule="evenodd"/><path stroke="#b7b7b7" stroke-width="1.0" stroke-linejoin="round" stroke-linecap="butt" d="m705.0278 28.56991l0 43.821045c0 5.105797 0.24414062 8.835251 0.73254395 11.1883545c0.7103882 3.5074615 1.9387207 6.474739 3.6850586 8.901848c1.7611084 2.4123 4.4472046 4.417618 8.058289 6.015953c3.6258545 1.5983429 7.5254517 2.3975067 11.698914 2.3975067c9.456848 0 16.937927 -3.995842 22.443298 -11.987518l0 10.389183l10.722168 0l0 -70.72637l-11.987488 0l0 37.893883c0 6.038162 -0.6586304 10.64817 -1.975769 13.830048c-1.3023071 3.1670685 -3.529663 5.6755676 -6.681885 7.5254974c-3.1522827 1.8351288 -6.5265503 2.7526932 -10.122803 2.7526932c-3.5962524 0 -6.6153564 -0.8953705 -9.057251 -2.6860886c-2.4418945 -1.8055344 -4.040222 -4.2844315 -4.794983 -7.4367065c-0.48840332 -2.1755142 -0.732605 -6.393341 -0.732605 -12.653496l0 -39.22583z" fill-rule="evenodd"/><path stroke="#b7b7b7" stroke-width="1.0" stroke-linejoin="round" stroke-linecap="butt" d="m810.3181 36.82798c6.0825806 0 11.032959 2.3087082 14.851196 6.9261208c2.4863281 2.9746819 3.9958496 7.4367027 4.5286255 13.386066l-39.492188 0c0.39959717 -6.1713524 2.4714966 -11.099556 6.2157593 -14.784607c3.7590332 -3.6850548 8.391235 -5.5275803 13.896606 -5.5275803zm-0.13317871 -9.856405c-9.767639 0 -17.714905 3.2854671 -23.841858 9.856405c-6.126953 6.570938 -9.19043 15.805767 -9.19043 27.70449c0 11.499138 3.0264893 20.43798 9.079468 26.816528c6.067749 6.363739 14.273987 9.545616 24.618774 9.545616c8.213684 0 14.962219 -1.9979172 20.245605 -5.993759c5.283386 -3.995842 8.901855 -9.612213 10.855347 -16.849129l-12.387085 -1.5317383c-1.8203125 5.0614014 -4.284424 8.746452 -7.392273 11.0551605c-3.1079102 2.3087082 -6.859558 3.4630585 -11.255005 3.4630585c-5.904907 0 -10.83313 -2.0645142 -14.784607 -6.19355c-3.951416 -4.129036 -6.149109 -10.0784 -6.5931396 -17.848083l52.745117 0c0.04437256 -1.4207458 0.066589355 -2.4863052 0.066589355 -3.1966743c0 -11.676731 -2.9968872 -20.73397 -8.990662 -27.171711c-5.9937134 -6.437744 -13.718994 -9.656614 -23.175842 -9.656614z" fill-rule="evenodd"/></g></g></svg>