<svg version="1.1" viewBox="0.0 0.0 946.6771653543307 401.48818897637796" fill="none" stroke="none" stroke-linecap="square" stroke-miterlimit="10" xmlns:xlink="http://www.w3.org/1999/xlink" xmlns="http://www.w3.org/2000/svg"><clipPath id="p.0"><path d="m0 0l946.6772 0l0 401.4882l-946.6772 0l0 -401.4882z" clip-rule="nonzero"/></clipPath><g clip-path="url(#p.0)"><path fill="#000000" fill-opacity="0.0" d="m0 0l946.6772 0l0 401.4882l-946.6772 0z" fill-rule="evenodd"/><g mask="url(#mask-p.1)"><use xlink:href="#p.1" transform="matrix(1.0 0.0 0.0 -1.0 0.0 530.3339160113595)"/></g><defs><mask id="mask-p.1" maskUnits="userSpaceOnUse" x="267.8123282618579" y="274.66695800567976" width="410.980422851185" height="245.15908351704815"><linearGradient gradientUnits="userSpaceOnUse" id="gradient-p.1" x1="267.8123282672435" y1="274.6654702606274" x2="267.81188452782595" y2="397.24575589007134"><stop offset="0%" stop-color="#ffffff" stop-opacity="0.6499999761581421"/><stop offset="100%" stop-color="#ffffff" stop-opacity="0.0"/></linearGradient><rect fill="url(#gradient-p.1)" x="267.8123282618579" y="274.66695800567976" width="410.980422851185" height="245.15908351704815"/></mask></defs><g id="p.1"><path fill="#000000" fill-opacity="0.0" d="m451.96704 40.393715c0 3.8146973E-6 0 3.8146973E-6 0 3.8146973E-6l0 0l0 -3.8146973E-6zm83.60327 0.0016403198l0 0c0 0 0 0 0 0l0 0l0 0zm71.79297 7.6674805c0.44836426 0 0.6726074 0.7317734 0.6726074 2.195324c0 2.584816 -0.9571533 5.063408 -2.871399 7.4357758c-1.9143066 2.3605652 -4.414917 4.2962265 -7.501831 5.806988c-3.086975 1.5107651 -4.8632812 2.2779465 -5.3289185 2.3015518c1.0002441 -3.6824799 3.130066 -7.5597076 6.3895264 -11.63168c3.2593994 -4.0719757 6.1394043 -6.1079597 8.640015 -6.1079597zm-162.57639 1.416336c1.1554565 0 1.9746094 0.21245193 2.457489 0.637352c0.5001221 0.41309738 0.7501831 0.7494774 0.7501831 1.0091438l-7.5535583 24.325611c-0.8277893 2.5140076 -2.2591858 4.4437637 -4.294159 5.7892838c-2.0349731 1.333725 -3.9233704 2.0005798 -5.6651917 2.0005798c-1.3279114 0 -2.4402466 -0.2891693 -3.3370056 -0.86750793c-0.8795471 -0.5901413 -1.3193054 -2.3723679 -1.3193054 -5.346672c0 -3.4346237 0.914032 -7.4121704 2.7420654 -11.932655c1.8280334 -4.520481 4.2165527 -8.250175 7.1655273 -11.189075c2.9490051 -2.9507065 5.96698 -4.4260597 9.053955 -4.4260597zm83.600006 0c1.1554565 0 1.9746094 0.21245193 2.4574585 0.637352c0.5001221 0.41309738 0.7501831 0.70817184 0.7501831 0.88521194l-8.045044 25.511799c-0.776062 2.1245117 -2.1470947 3.7769089 -4.113098 4.957184c-1.9660034 1.1802826 -3.7509155 1.7704239 -5.3547363 1.7704239c-1.3279419 0 -2.4402466 -0.2891693 -3.3370361 -0.86750793c-0.8795166 -0.5901413 -1.3192749 -2.3723679 -1.3192749 -5.346672c0 -3.4346237 0.91400146 -7.4121704 2.7420654 -11.932655c1.8280029 -4.520481 4.2165527 -8.250175 7.1655273 -11.189075c2.9489746 -2.9507065 5.96698 -4.4260597 9.053955 -4.4260597zm-158.30997 -38.4713c-7.277649 0 -13.865448 0.95012665 -19.763458 2.8503819c-5.8807373 1.9002542 -10.545685 4.538186 -13.994812 7.9137926c-3.4318542 3.3638039 -5.1477966 7.1702137 -5.1477966 11.419228c0 4.2608223 1.56073 8.126244 4.68219 11.596275c3.1387024 3.4582253 7.613922 7.4829865 13.42569 12.074287c5.4151306 4.2608185 9.390228 7.7957687 11.9253235 10.6048355c2.5351257 2.8090668 3.8026733 5.7066574 3.8026733 8.69278c0 3.292984 -1.5090027 6.007637 -4.5269775 8.143944c-3.0179749 2.1245117 -6.863739 3.18676 -11.537323 3.18676c-3.638794 0 -6.5188293 -0.7199707 -8.640045 -2.159912c-2.1039429 -1.4517517 -3.1559448 -3.422821 -3.1559448 -5.9132156c0 -2.7264557 1.302063 -4.8804626 3.906128 -6.462044c2.6040955 -1.5815811 7.579468 -2.3723679 14.926086 -2.3723679c-1.310669 -4.626709 -3.5612183 -7.73085 -6.751648 -9.3124275c-3.1731873 -1.59338 -6.9758606 -2.3900719 -11.407959 -2.3900719c-4.708069 0 -8.993591 0.8793106 -12.856598 2.6379318c-3.8457642 1.7586174 -6.8723755 4.1132812 -9.079803 7.0639877c-2.2074585 2.9389038 -3.3111572 6.1846848 -3.3111572 9.737328c0 4.2254105 1.5520935 7.955101 4.656311 11.189079c3.104187 3.2339706 7.4500732 5.7302628 13.037659 7.488884c5.604828 1.7586288 11.985687 2.6379318 19.142609 2.6379318c8.46759 0 16.20224 -1.1684799 23.203949 -3.5054321c7.018982 -2.3487625 12.580688 -5.582733 16.68512 -9.70192c4.121704 -4.1309967 6.182556 -8.751801 6.182556 -13.862419c0 -3.7178879 -1.0002441 -7.1643143 -3.0007324 -10.339272c-2.0004883 -3.1749573 -4.3631287 -5.936817 -7.0879517 -8.28558c-2.70755 -2.3487625 -6.2084045 -5.104725 -10.502563 -8.267876c-5.0701904 -3.8241158 -8.709015 -6.8692436 -10.916473 -9.135387c-2.207428 -2.26614 -3.3111572 -4.6149025 -3.3111572 -7.0462837c0 -2.620226 1.0433655 -4.72703 3.1300964 -6.32041c2.1039429 -1.6051826 4.7856445 -2.4077759 8.045074 -2.4077759c2.56958 0 4.5355835 0.47211266 5.8979797 1.416338c1.3796387 0.93242264 2.0694885 2.2425365 2.0694885 3.9303398c0 1.4753532 -0.47427368 2.8857899 -1.42276 4.231312c-0.9312744 1.3337173 -3.0697327 2.8562813 -6.4153748 4.567692c4.4148865 4.060169 9.191895 6.0902557 14.331085 6.0902557c4.656311 0 8.381378 -1.1861839 11.17514 -3.5585518c2.8110352 -2.3841705 4.2165527 -5.36438 4.2165527 -8.940636c0 -5.370285 -2.9317322 -9.625202 -8.795258 -12.764752c-5.863495 -3.151353 -13.468811 -4.72703 -22.815918 -4.72703zm144.95456 93.31166c-0.85736084 2.62854 -1.8810425 4.525337 -3.071045 5.690407c-1.2244263 1.2275009 -2.1643066 1.8412399 -2.819641 1.8412399c-0.7070923 0 -1.2330627 -0.1298294 -1.5779724 -0.38948822c-0.34490967 -0.2596588 -0.5173645 -0.5724335 -0.5173645 -0.938324c0 -2.3913498 2.6619873 -4.459297 7.985962 -6.2038345zm91.06421 -66.54286c-10.881958 0 -19.806519 2.3664665 -26.773743 7.0993958c-6.967224 4.732929 -11.951233 10.256649 -14.951965 16.571163c-3.0007324 6.302704 -4.5010986 12.074287 -4.5010986 17.314735c0 0.12761688 9.1552734E-4 0.2545929 0.0028076172 0.38093567l0 0c-1.5599976 2.4605331 -3.164856 4.316429 -4.814514 5.567688c-2.7075195 2.0536957 -4.5010986 3.1808624 -5.380615 3.3815079l15.365845 -49.341694l-29.671082 0l0.19897461 1.644947c-0.082336426 -0.04127121 -0.16589355 -0.08206558 -0.2506714 -0.12238312c-2.880066 -1.3809319 -6.8378906 -2.0713959 -11.873596 -2.0713959c-9.485107 0 -17.573273 2.2189293 -24.264587 6.6567917c-6.691284 4.4378624 -11.683899 9.755032 -14.977783 15.951515c-3.2766724 6.19648 -4.9150085 12.109695 -4.9150085 17.73964c0 0.22822571 0.002746582 0.45446777 0.008270264 0.67871857l0 0c-0.69158936 1.021347 -1.3905945 1.8396606 -2.0969543 2.4549332c-1.7073059 1.475357 -3.5094604 2.213028 -5.406494 2.213028c-2.1384277 0 -3.207672 -0.80259705 -3.207672 -2.4077759c0 -1.0386429 0.18109131 -2.0241776 0.5432434 -2.956604l12.3133545 -39.781414l-29.671051 0l0.19567871 1.6433067l0 0c-0.08123779 -0.04071045 -0.1637268 -0.08095932 -0.247406 -0.1207428c-2.8800354 -1.3809319 -6.8378906 -2.0713959 -11.873596 -2.0713959c-9.485077 0 -17.573273 2.2189293 -24.264557 6.6567917c-6.6913147 4.4378624 -11.683899 9.755032 -14.977814 15.951515c-3.2766724 6.19648 -4.9150085 12.109695 -4.9150085 17.73964c0 6.6331863 2.3281555 11.59037 6.984497 14.871559c4.6735535 3.2693787 10.493927 4.904068 17.461151 4.904068c5.8980103 0 10.950958 -1.0327454 15.1588745 -3.098236c4.0751038 -2.0002975 6.2740173 -3.3364182 6.5967407 -4.008377l0 0c-0.17886353 0.620018 1.3386536 1.9443436 4.5525513 3.9729614c3.3283997 2.0891037 7.648407 3.1336517 12.9600525 3.1336517c6.5361023 0 12.977325 -1.5343628 19.3237 -4.603096c1.5711975 -0.7597351 3.1059265 -1.7411957 4.6041565 -2.9443893l0 0c0.84762573 0.9771042 1.8285217 1.8582458 2.942749 2.6434174c4.6735535 3.2693787 10.4939575 4.904068 17.461182 4.904068c0.2866516 0 0.56936646 -0.0011291504 0.848114 -0.0033950806l0 0c-1.6142273 0.67585754 -3.1817322 1.4028625 -4.7025146 2.181015c-5.466858 2.8090744 -8.200287 6.6567917 -8.200287 11.5431595c0 4.1545944 2.060852 7.3295517 6.182556 9.524879c4.121704 2.1953278 9.097046 3.292984 14.926086 3.292984c7.294861 0 13.856812 -1.4871521 19.685852 -4.461464c5.8462524 -2.9625092 9.898926 -8.238373 12.158142 -15.827583l1.9918213 -6.462044c5.3289185 -0.9442291 10.640564 -3.051033 15.934937 -6.3204117c0.5161133 -0.31882477 1.0256348 -0.6637192 1.5285645 -1.0346756l0 0c0.9379883 1.0169983 2.0323486 1.9284286 3.283142 2.7342834c5.0184937 3.222168 11.890869 4.833252 20.617126 4.833252c18.608032 0 35.120667 -8.220665 49.537964 -24.661995l-12.727234 0c-5.3289185 4.060173 -9.838623 6.910553 -13.529175 8.551147c-3.6733398 1.6287842 -8.045044 2.443184 -13.115295 2.443184c-3.104187 0 -5.2426147 -0.40720367 -6.415344 -1.2215958c-1.1554565 -0.82619476 -1.7331543 -2.7087479 -1.7331543 -5.6476517c0 -0.67276 0.04309082 -1.416336 0.1293335 -2.2307281c4.897766 -0.2242508 10.381836 -1.4517517 16.45227 -3.6824799c6.0704346 -2.2307358 10.968201 -5.2227554 14.693237 -8.976051c3.7423096 -3.753296 5.6134644 -7.8901863 5.6134644 -12.410664c0 -8.47443 -6.9327393 -12.711639 -20.798218 -12.711639z" fill-rule="evenodd"/><path fill="#000000" fill-opacity="0.0" d="m496.07486 170.6985c0 0 0 0 0 0l0 0l0 0zm152.05533 7.6674957c0.4484253 0 0.6726074 0.73176575 0.6726074 2.1953278c0 2.5848083 -0.9571533 5.0634003 -2.871399 7.4357758c-1.9142456 2.36055 -4.414856 4.296219 -7.501831 5.8069916c-3.086975 1.5107574 -4.8632812 2.2779236 -5.3289185 2.3015442c1.0002441 -3.6824799 3.130127 -7.5597076 6.3895264 -11.631683c3.2593994 -4.0719757 6.1394043 -6.107956 8.640015 -6.107956zm-159.23874 1.416336c1.1554565 0 1.9746399 0.21244812 2.457489 0.6373596c0.5001221 0.41308594 0.7501831 0.7081604 0.7501831 0.88520813l-8.045074 25.511795c-0.7760315 2.1245117 -2.1470642 3.7769012 -4.1130676 4.957184c-1.9660034 1.1802979 -3.7509155 1.7704315 -5.354767 1.7704315c-1.3279114 0 -2.4402466 -0.2891693 -3.3370056 -0.86750793c-0.8795166 -0.59013367 -1.3193054 -2.3723755 -1.3193054 -5.3466797c0 -3.4346313 0.914032 -7.4121857 2.7420654 -11.932663c1.8280334 -4.520462 4.2165527 -8.250168 7.165558 -11.189072c2.9489746 -2.950714 5.96698 -4.426056 9.053925 -4.426056zm-70.88498 -0.5488281c0.89678955 0 1.5262451 0.20063782 1.8883972 0.60194397c0.37942505 0.38949585 0.61221313 1.0504456 0.6984558 1.9828796c-3.1904297 0.9206085 -4.7856445 3.36969 -4.7856445 7.3472443c0 3.812317 1.293396 5.919113 3.880249 6.3204193c-0.53460693 2.6556244 -1.6987 5.6063385 -3.492218 8.852112c-1.7935486 3.2339783 -3.733673 5.6712646 -5.820404 7.311844c-2.069458 1.6287994 -3.871643 2.4431915 -5.406494 2.4431915c-1.8970032 0 -3.1731873 -0.33638 -3.8285217 -1.00914c-0.6553345 -0.67276 -0.9830017 -2.5198975 -0.9830017 -5.5414276c0 -3.481842 0.9657593 -7.5479126 2.8972473 -12.198212c1.9315186 -4.6621094 4.3286743 -8.509827 7.191437 -11.543167c2.880005 -3.0451202 5.466858 -4.567688 7.760498 -4.567688zm-90.61072 -37.373642c-9.174652 0 -18.323456 1.4281464 -27.44638 4.284424c-9.105682 2.8562775 -16.65924 6.644989 -22.660706 11.366119c-5.9842224 4.7211304 -8.976349 9.684219 -8.976349 14.889267c0 4.4732666 1.7504272 7.73085 5.2512817 9.772736c3.500885 2.0300903 9.623047 3.0451202 18.366577 3.0451202c0 -1.9946747 -0.37078857 -3.5172424 -1.1123352 -4.567688c-0.74157715 -1.0504456 -1.1123352 -2.744156 -1.1123352 -5.0811157c0 -5.287674 1.7504272 -9.766846 5.2512817 -13.437515c3.518097 -3.6824799 6.5619507 -5.895508 9.131531 -6.639084l0 0l-22.5831 72.481125l29.671051 0l12.727234 -40.896774l16.581665 0l-12.727264 40.896774l29.671051 0l26.670319 -85.90094l-29.645172 0l-10.16629 32.41646l-16.607513 0l10.114532 -32.22171c-5.363373 -0.27145386 -8.829742 -0.40719604 -10.399078 -0.40719604zm148.14029 92.76283c-0.85736084 2.6285248 -1.8810425 4.525345 -3.0710144 5.6904144c-1.2244568 1.227478 -2.1643372 1.8412323 -2.8196716 1.8412323c-0.70706177 0 -1.2330627 -0.12982178 -1.5779724 -0.38949585c-0.34490967 -0.2596588 -0.5173645 -0.57244873 -0.5173645 -0.938324c0 -2.3913422 2.6620178 -4.4592743 7.986023 -6.203827zm-58.822968 -66.54286c-10.847504 0 -19.815216 2.3664703 -26.903137 7.0993958c-7.070709 4.7211456 -12.166779 10.238968 -15.288239 16.553467c-3.104187 6.302704 -4.656311 12.044769 -4.656311 17.226212c0 6.633194 2.621338 11.537262 7.8640137 14.712219c5.2426453 3.1631622 12.201263 4.7447357 20.875793 4.7447357c7.174164 0 13.770599 -1.4694519 19.789307 -4.4083557c6.03598 -2.9389038 10.899231 -7.02269 14.589783 -12.2513275c3.7077942 -5.2286377 5.932495 -10.699249 6.6740417 -16.41182c1.055542 -0.115249634 2.1345215 -0.26397705 3.2369995 -0.44615173l0 0c-2.0680542 4.8302765 -3.1020813 9.481766 -3.1020813 13.954483c0 6.6331787 2.3281555 11.590363 6.9844666 14.8715515c4.6735535 3.2693787 10.493927 4.904068 17.461151 4.904068c0.28668213 0 0.569397 -0.0011291504 0.848114 -0.0033874512l0 0c-1.6141968 0.67585754 -3.1817017 1.4028473 -4.702484 2.181015c-5.466858 2.8090668 -8.200287 6.656784 -8.200287 11.543152c0 4.154602 2.060852 7.3295593 6.1825256 9.524887c4.121704 2.1953125 9.097076 3.292984 14.926086 3.292984c7.2948914 0 13.856842 -1.4871521 19.685852 -4.4614716c5.8462524 -2.962494 9.898956 -8.238358 12.158142 -15.827576l1.9918518 -6.4620514c5.3289185 -0.94421387 10.640564 -3.0510254 15.934937 -6.3204193c0.21057129 -0.13006592 0.4199829 -0.26446533 0.62835693 -0.40319824l0 0c0.83374023 1.1300507 1.8746338 2.131958 3.1227417 3.005722c3.7595215 2.6202393 8.648682 3.9303436 14.667358 3.9303436c4.690857 0 9.278137 -0.8143921 13.762024 -2.4431763c4.4266357 -1.6196594 7.080017 -3.2163086 7.960083 -4.789963l0 0c-0.26513672 0.62002563 1.203186 1.9629211 4.4050293 4.0286713c3.3283691 2.136322 7.70874 3.2044678 13.141113 3.2044678c6.536072 0 12.977295 -1.534378 19.32367 -4.6031036c1.6103516 -0.778656 3.182373 -1.7902374 4.7161255 -3.034729l0 0c0.95214844 1.0453491 2.0680542 1.9802094 3.3475952 2.8045807c5.0184326 3.222168 11.890808 4.833252 20.617065 4.833252c18.608032 0 35.120667 -8.220657 49.537964 -24.661987l-12.727234 0c-5.3288574 4.0601654 -9.838623 6.9105377 -13.529175 8.551132c-3.6732788 1.6287994 -8.045044 2.4431915 -13.115234 2.4431915c-3.104248 0 -5.242676 -0.40719604 -6.4154053 -1.2215881c-1.1554565 -0.8262024 -1.7331543 -2.7087555 -1.7331543 -5.6476593c0 -0.67276 0.04309082 -1.416336 0.1293335 -2.2307281c4.897766 -0.22425842 10.381836 -1.4517517 16.452332 -3.6824799c6.0704346 -2.2307434 10.968201 -5.222748 14.693237 -8.976044c3.7422485 -3.753296 5.6134033 -7.8901978 5.6134033 -12.410675c0 -8.474426 -6.932678 -12.711639 -20.798157 -12.711639c-10.881958 0 -19.80658 2.3664703 -26.773804 7.0993958c-6.967224 4.7329254 -11.951172 10.256653 -14.951904 16.571167c-3.0007935 6.302704 -4.5011597 12.07428 -4.5011597 17.314743c0 0.074783325 3.6621094E-4 0.14935303 9.765625E-4 0.22372437l0 0c-0.6734009 0.9296875 -1.352478 1.6695251 -2.0372925 2.219452c-1.6900635 1.3573303 -3.5094604 2.0359955 -5.458191 2.0359955c-1.4831543 0 -2.3885498 -0.1003418 -2.7161865 -0.3009796c-0.32769775 -0.20063782 -0.4915161 -0.68455505 -0.4915161 -1.4517517c0 -1.0386505 0.18109131 -2.0241852 0.5432129 -2.956604l12.3133545 -39.781403l-29.67102 0l-11.304504 36.63005c-1.1209717 2.6084137 -2.5006104 4.573593 -4.138916 5.895508c-1.6383667 1.3101196 -3.4318848 1.9651794 -5.3806763 1.9651794c-0.96569824 0 -1.4486084 -0.731781 -1.4486084 -2.1953278c0 -0.8025818 0.1293335 -1.6641998 0.38806152 -2.5848236l12.3133545 -39.710587l-29.671082 0l-11.238464 36.33786l0 0c-2.2593384 4.5502167 -4.618164 7.75766 -7.076538 9.62233c-2.7075806 2.0536804 -4.5010986 3.1808624 -5.380615 3.3815002l15.365845 -49.34169l-29.671082 0l0.19894409 1.644928l0 0c-0.08230591 -0.041259766 -0.16586304 -0.08204651 -0.2506714 -0.12237549c-2.8800354 -1.3809204 -6.8378906 -2.0713806 -11.873596 -2.0713806c-9.485077 0 -17.573273 2.2189178 -24.264557 6.656784c-3.9657898 2.6302338 -7.3349 5.569336 -10.107269 8.817291l0 0c-3.4890747 0.9599304 -6.578186 1.517273 -9.267303 1.6720886l0 0c-0.81796265 -11.71405 -8.684113 -17.571075 -23.598389 -17.571075z" fill-rule="evenodd"/><path stroke="#b7b7b7" stroke-width="1.0" stroke-linejoin="round" stroke-linecap="butt" d="m451.96704 40.393715c0 3.8146973E-6 0 3.8146973E-6 0 3.8146973E-6l0 0l0 -3.8146973E-6zm83.60327 0.0016403198l0 0c0 0 0 0 0 0l0 0l0 0zm71.79297 7.6674805c0.44836426 0 0.6726074 0.7317734 0.6726074 2.195324c0 2.584816 -0.9571533 5.063408 -2.871399 7.4357758c-1.9143066 2.3605652 -4.414917 4.2962265 -7.501831 5.806988c-3.086975 1.5107651 -4.8632812 2.2779465 -5.3289185 2.3015518c1.0002441 -3.6824799 3.130066 -7.5597076 6.3895264 -11.63168c3.2593994 -4.0719757 6.1394043 -6.1079597 8.640015 -6.1079597zm-162.57639 1.416336c1.1554565 0 1.9746094 0.21245193 2.457489 0.637352c0.5001221 0.41309738 0.7501831 0.7494774 0.7501831 1.0091438l-7.5535583 24.325611c-0.8277893 2.5140076 -2.2591858 4.4437637 -4.294159 5.7892838c-2.0349731 1.333725 -3.9233704 2.0005798 -5.6651917 2.0005798c-1.3279114 0 -2.4402466 -0.2891693 -3.3370056 -0.86750793c-0.8795471 -0.5901413 -1.3193054 -2.3723679 -1.3193054 -5.346672c0 -3.4346237 0.914032 -7.4121704 2.7420654 -11.932655c1.8280334 -4.520481 4.2165527 -8.250175 7.1655273 -11.189075c2.9490051 -2.9507065 5.96698 -4.4260597 9.053955 -4.4260597zm83.600006 0c1.1554565 0 1.9746094 0.21245193 2.4574585 0.637352c0.5001221 0.41309738 0.7501831 0.70817184 0.7501831 0.88521194l-8.045044 25.511799c-0.776062 2.1245117 -2.1470947 3.7769089 -4.113098 4.957184c-1.9660034 1.1802826 -3.7509155 1.7704239 -5.3547363 1.7704239c-1.3279419 0 -2.4402466 -0.2891693 -3.3370361 -0.86750793c-0.8795166 -0.5901413 -1.3192749 -2.3723679 -1.3192749 -5.346672c0 -3.4346237 0.91400146 -7.4121704 2.7420654 -11.932655c1.8280029 -4.520481 4.2165527 -8.250175 7.1655273 -11.189075c2.9489746 -2.9507065 5.96698 -4.4260597 9.053955 -4.4260597zm-158.30997 -38.4713c-7.277649 0 -13.865448 0.95012665 -19.763458 2.8503819c-5.8807373 1.9002542 -10.545685 4.538186 -13.994812 7.9137926c-3.4318542 3.3638039 -5.1477966 7.1702137 -5.1477966 11.419228c0 4.2608223 1.56073 8.126244 4.68219 11.596275c3.1387024 3.4582253 7.613922 7.4829865 13.42569 12.074287c5.4151306 4.2608185 9.390228 7.7957687 11.9253235 10.6048355c2.5351257 2.8090668 3.8026733 5.7066574 3.8026733 8.69278c0 3.292984 -1.5090027 6.007637 -4.5269775 8.143944c-3.0179749 2.1245117 -6.863739 3.18676 -11.537323 3.18676c-3.638794 0 -6.5188293 -0.7199707 -8.640045 -2.159912c-2.1039429 -1.4517517 -3.1559448 -3.422821 -3.1559448 -5.9132156c0 -2.7264557 1.302063 -4.8804626 3.906128 -6.462044c2.6040955 -1.5815811 7.579468 -2.3723679 14.926086 -2.3723679c-1.310669 -4.626709 -3.5612183 -7.73085 -6.751648 -9.3124275c-3.1731873 -1.59338 -6.9758606 -2.3900719 -11.407959 -2.3900719c-4.708069 0 -8.993591 0.8793106 -12.856598 2.6379318c-3.8457642 1.7586174 -6.8723755 4.1132812 -9.079803 7.0639877c-2.2074585 2.9389038 -3.3111572 6.1846848 -3.3111572 9.737328c0 4.2254105 1.5520935 7.955101 4.656311 11.189079c3.104187 3.2339706 7.4500732 5.7302628 13.037659 7.488884c5.604828 1.7586288 11.985687 2.6379318 19.142609 2.6379318c8.46759 0 16.20224 -1.1684799 23.203949 -3.5054321c7.018982 -2.3487625 12.580688 -5.582733 16.68512 -9.70192c4.121704 -4.1309967 6.182556 -8.751801 6.182556 -13.862419c0 -3.7178879 -1.0002441 -7.1643143 -3.0007324 -10.339272c-2.0004883 -3.1749573 -4.3631287 -5.936817 -7.0879517 -8.28558c-2.70755 -2.3487625 -6.2084045 -5.104725 -10.502563 -8.267876c-5.0701904 -3.8241158 -8.709015 -6.8692436 -10.916473 -9.135387c-2.207428 -2.26614 -3.3111572 -4.6149025 -3.3111572 -7.0462837c0 -2.620226 1.0433655 -4.72703 3.1300964 -6.32041c2.1039429 -1.6051826 4.7856445 -2.4077759 8.045074 -2.4077759c2.56958 0 4.5355835 0.47211266 5.8979797 1.416338c1.3796387 0.93242264 2.0694885 2.2425365 2.0694885 3.9303398c0 1.4753532 -0.47427368 2.8857899 -1.42276 4.231312c-0.9312744 1.3337173 -3.0697327 2.8562813 -6.4153748 4.567692c4.4148865 4.060169 9.191895 6.0902557 14.331085 6.0902557c4.656311 0 8.381378 -1.1861839 11.17514 -3.5585518c2.8110352 -2.3841705 4.2165527 -5.36438 4.2165527 -8.940636c0 -5.370285 -2.9317322 -9.625202 -8.795258 -12.764752c-5.863495 -3.151353 -13.468811 -4.72703 -22.815918 -4.72703zm144.95456 93.31166c-0.85736084 2.62854 -1.8810425 4.525337 -3.071045 5.690407c-1.2244263 1.2275009 -2.1643066 1.8412399 -2.819641 1.8412399c-0.7070923 0 -1.2330627 -0.1298294 -1.5779724 -0.38948822c-0.34490967 -0.2596588 -0.5173645 -0.5724335 -0.5173645 -0.938324c0 -2.3913498 2.6619873 -4.459297 7.985962 -6.2038345zm91.06421 -66.54286c-10.881958 0 -19.806519 2.3664665 -26.773743 7.0993958c-6.967224 4.732929 -11.951233 10.256649 -14.951965 16.571163c-3.0007324 6.302704 -4.5010986 12.074287 -4.5010986 17.314735c0 0.12761688 9.1552734E-4 0.2545929 0.0028076172 0.38093567l0 0c-1.5599976 2.4605331 -3.164856 4.316429 -4.814514 5.567688c-2.7075195 2.0536957 -4.5010986 3.1808624 -5.380615 3.3815079l15.365845 -49.341694l-29.671082 0l0.19897461 1.644947c-0.082336426 -0.04127121 -0.16589355 -0.08206558 -0.2506714 -0.12238312c-2.880066 -1.3809319 -6.8378906 -2.0713959 -11.873596 -2.0713959c-9.485107 0 -17.573273 2.2189293 -24.264587 6.6567917c-6.691284 4.4378624 -11.683899 9.755032 -14.977783 15.951515c-3.2766724 6.19648 -4.9150085 12.109695 -4.9150085 17.73964c0 0.22822571 0.002746582 0.45446777 0.008270264 0.67871857l0 0c-0.69158936 1.021347 -1.3905945 1.8396606 -2.0969543 2.4549332c-1.7073059 1.475357 -3.5094604 2.213028 -5.406494 2.213028c-2.1384277 0 -3.207672 -0.80259705 -3.207672 -2.4077759c0 -1.0386429 0.18109131 -2.0241776 0.5432434 -2.956604l12.3133545 -39.781414l-29.671051 0l0.19567871 1.6433067l0 0c-0.08123779 -0.04071045 -0.1637268 -0.08095932 -0.247406 -0.1207428c-2.8800354 -1.3809319 -6.8378906 -2.0713959 -11.873596 -2.0713959c-9.485077 0 -17.573273 2.2189293 -24.264557 6.6567917c-6.6913147 4.4378624 -11.683899 9.755032 -14.977814 15.951515c-3.2766724 6.19648 -4.9150085 12.109695 -4.9150085 17.73964c0 6.6331863 2.3281555 11.59037 6.984497 14.871559c4.6735535 3.2693787 10.493927 4.904068 17.461151 4.904068c5.8980103 0 10.950958 -1.0327454 15.1588745 -3.098236c4.0751038 -2.0002975 6.2740173 -3.3364182 6.5967407 -4.008377l0 0c-0.17886353 0.620018 1.3386536 1.9443436 4.5525513 3.9729614c3.3283997 2.0891037 7.648407 3.1336517 12.9600525 3.1336517c6.5361023 0 12.977325 -1.5343628 19.3237 -4.603096c1.5711975 -0.7597351 3.1059265 -1.7411957 4.6041565 -2.9443893l0 0c0.84762573 0.9771042 1.8285217 1.8582458 2.942749 2.6434174c4.6735535 3.2693787 10.4939575 4.904068 17.461182 4.904068c0.2866516 0 0.56936646 -0.0011291504 0.848114 -0.0033950806l0 0c-1.6142273 0.67585754 -3.1817322 1.4028625 -4.7025146 2.181015c-5.466858 2.8090744 -8.200287 6.6567917 -8.200287 11.5431595c0 4.1545944 2.060852 7.3295517 6.182556 9.524879c4.121704 2.1953278 9.097046 3.292984 14.926086 3.292984c7.294861 0 13.856812 -1.4871521 19.685852 -4.461464c5.8462524 -2.9625092 9.898926 -8.238373 12.158142 -15.827583l1.9918213 -6.462044c5.3289185 -0.9442291 10.640564 -3.051033 15.934937 -6.3204117c0.5161133 -0.31882477 1.0256348 -0.6637192 1.5285645 -1.0346756l0 0c0.9379883 1.0169983 2.0323486 1.9284286 3.283142 2.7342834c5.0184937 3.222168 11.890869 4.833252 20.617126 4.833252c18.608032 0 35.120667 -8.220665 49.537964 -24.661995l-12.727234 0c-5.3289185 4.060173 -9.838623 6.910553 -13.529175 8.551147c-3.6733398 1.6287842 -8.045044 2.443184 -13.115295 2.443184c-3.104187 0 -5.2426147 -0.40720367 -6.415344 -1.2215958c-1.1554565 -0.82619476 -1.7331543 -2.7087479 -1.7331543 -5.6476517c0 -0.67276 0.04309082 -1.416336 0.1293335 -2.2307281c4.897766 -0.2242508 10.381836 -1.4517517 16.45227 -3.6824799c6.0704346 -2.2307358 10.968201 -5.2227554 14.693237 -8.976051c3.7423096 -3.753296 5.6134644 -7.8901863 5.6134644 -12.410664c0 -8.47443 -6.9327393 -12.711639 -20.798218 -12.711639z" fill-rule="evenodd"/><path stroke="#b7b7b7" stroke-width="1.0" stroke-linejoin="round" stroke-linecap="butt" d="m496.07486 170.6985c0 0 0 0 0 0l0 0l0 0zm152.05533 7.6674957c0.4484253 0 0.6726074 0.73176575 0.6726074 2.1953278c0 2.5848083 -0.9571533 5.0634003 -2.871399 7.4357758c-1.9142456 2.36055 -4.414856 4.296219 -7.501831 5.8069916c-3.086975 1.5107574 -4.8632812 2.2779236 -5.3289185 2.3015442c1.0002441 -3.6824799 3.130127 -7.5597076 6.3895264 -11.631683c3.2593994 -4.0719757 6.1394043 -6.107956 8.640015 -6.107956zm-159.23874 1.416336c1.1554565 0 1.9746399 0.21244812 2.457489 0.6373596c0.5001221 0.41308594 0.7501831 0.7081604 0.7501831 0.88520813l-8.045074 25.511795c-0.7760315 2.1245117 -2.1470642 3.7769012 -4.1130676 4.957184c-1.9660034 1.1802979 -3.7509155 1.7704315 -5.354767 1.7704315c-1.3279114 0 -2.4402466 -0.2891693 -3.3370056 -0.86750793c-0.8795166 -0.59013367 -1.3193054 -2.3723755 -1.3193054 -5.3466797c0 -3.4346313 0.914032 -7.4121857 2.7420654 -11.932663c1.8280334 -4.520462 4.2165527 -8.250168 7.165558 -11.189072c2.9489746 -2.950714 5.96698 -4.426056 9.053925 -4.426056zm-70.88498 -0.5488281c0.89678955 0 1.5262451 0.20063782 1.8883972 0.60194397c0.37942505 0.38949585 0.61221313 1.0504456 0.6984558 1.9828796c-3.1904297 0.9206085 -4.7856445 3.36969 -4.7856445 7.3472443c0 3.812317 1.293396 5.919113 3.880249 6.3204193c-0.53460693 2.6556244 -1.6987 5.6063385 -3.492218 8.852112c-1.7935486 3.2339783 -3.733673 5.6712646 -5.820404 7.311844c-2.069458 1.6287994 -3.871643 2.4431915 -5.406494 2.4431915c-1.8970032 0 -3.1731873 -0.33638 -3.8285217 -1.00914c-0.6553345 -0.67276 -0.9830017 -2.5198975 -0.9830017 -5.5414276c0 -3.481842 0.9657593 -7.5479126 2.8972473 -12.198212c1.9315186 -4.6621094 4.3286743 -8.509827 7.191437 -11.543167c2.880005 -3.0451202 5.466858 -4.567688 7.760498 -4.567688zm-90.61072 -37.373642c-9.174652 0 -18.323456 1.4281464 -27.44638 4.284424c-9.105682 2.8562775 -16.65924 6.644989 -22.660706 11.366119c-5.9842224 4.7211304 -8.976349 9.684219 -8.976349 14.889267c0 4.4732666 1.7504272 7.73085 5.2512817 9.772736c3.500885 2.0300903 9.623047 3.0451202 18.366577 3.0451202c0 -1.9946747 -0.37078857 -3.5172424 -1.1123352 -4.567688c-0.74157715 -1.0504456 -1.1123352 -2.744156 -1.1123352 -5.0811157c0 -5.287674 1.7504272 -9.766846 5.2512817 -13.437515c3.518097 -3.6824799 6.5619507 -5.895508 9.131531 -6.639084l0 0l-22.5831 72.481125l29.671051 0l12.727234 -40.896774l16.581665 0l-12.727264 40.896774l29.671051 0l26.670319 -85.90094l-29.645172 0l-10.16629 32.41646l-16.607513 0l10.114532 -32.22171c-5.363373 -0.27145386 -8.829742 -0.40719604 -10.399078 -0.40719604zm148.14029 92.76283c-0.85736084 2.6285248 -1.8810425 4.525345 -3.0710144 5.6904144c-1.2244568 1.227478 -2.1643372 1.8412323 -2.8196716 1.8412323c-0.70706177 0 -1.2330627 -0.12982178 -1.5779724 -0.38949585c-0.34490967 -0.2596588 -0.5173645 -0.57244873 -0.5173645 -0.938324c0 -2.3913422 2.6620178 -4.4592743 7.986023 -6.203827zm-58.822968 -66.54286c-10.847504 0 -19.815216 2.3664703 -26.903137 7.0993958c-7.070709 4.7211456 -12.166779 10.238968 -15.288239 16.553467c-3.104187 6.302704 -4.656311 12.044769 -4.656311 17.226212c0 6.633194 2.621338 11.537262 7.8640137 14.712219c5.2426453 3.1631622 12.201263 4.7447357 20.875793 4.7447357c7.174164 0 13.770599 -1.4694519 19.789307 -4.4083557c6.03598 -2.9389038 10.899231 -7.02269 14.589783 -12.2513275c3.7077942 -5.2286377 5.932495 -10.699249 6.6740417 -16.41182c1.055542 -0.115249634 2.1345215 -0.26397705 3.2369995 -0.44615173l0 0c-2.0680542 4.8302765 -3.1020813 9.481766 -3.1020813 13.954483c0 6.6331787 2.3281555 11.590363 6.9844666 14.8715515c4.6735535 3.2693787 10.493927 4.904068 17.461151 4.904068c0.28668213 0 0.569397 -0.0011291504 0.848114 -0.0033874512l0 0c-1.6141968 0.67585754 -3.1817017 1.4028473 -4.702484 2.181015c-5.466858 2.8090668 -8.200287 6.656784 -8.200287 11.543152c0 4.154602 2.060852 7.3295593 6.1825256 9.524887c4.121704 2.1953125 9.097076 3.292984 14.926086 3.292984c7.2948914 0 13.856842 -1.4871521 19.685852 -4.4614716c5.8462524 -2.962494 9.898956 -8.238358 12.158142 -15.827576l1.9918518 -6.4620514c5.3289185 -0.94421387 10.640564 -3.0510254 15.934937 -6.3204193c0.21057129 -0.13006592 0.4199829 -0.26446533 0.62835693 -0.40319824l0 0c0.83374023 1.1300507 1.8746338 2.131958 3.1227417 3.005722c3.7595215 2.6202393 8.648682 3.9303436 14.667358 3.9303436c4.690857 0 9.278137 -0.8143921 13.762024 -2.4431763c4.4266357 -1.6196594 7.080017 -3.2163086 7.960083 -4.789963l0 0c-0.26513672 0.62002563 1.203186 1.9629211 4.4050293 4.0286713c3.3283691 2.136322 7.70874 3.2044678 13.141113 3.2044678c6.536072 0 12.977295 -1.534378 19.32367 -4.6031036c1.6103516 -0.778656 3.182373 -1.7902374 4.7161255 -3.034729l0 0c0.95214844 1.0453491 2.0680542 1.9802094 3.3475952 2.8045807c5.0184326 3.222168 11.890808 4.833252 20.617065 4.833252c18.608032 0 35.120667 -8.220657 49.537964 -24.661987l-12.727234 0c-5.3288574 4.0601654 -9.838623 6.9105377 -13.529175 8.551132c-3.6732788 1.6287994 -8.045044 2.4431915 -13.115234 2.4431915c-3.104248 0 -5.242676 -0.40719604 -6.4154053 -1.2215881c-1.1554565 -0.8262024 -1.7331543 -2.7087555 -1.7331543 -5.6476593c0 -0.67276 0.04309082 -1.416336 0.1293335 -2.2307281c4.897766 -0.22425842 10.381836 -1.4517517 16.452332 -3.6824799c6.0704346 -2.2307434 10.968201 -5.222748 14.693237 -8.976044c3.7422485 -3.753296 5.6134033 -7.8901978 5.6134033 -12.410675c0 -8.474426 -6.932678 -12.711639 -20.798157 -12.711639c-10.881958 0 -19.80658 2.3664703 -26.773804 7.0993958c-6.967224 4.7329254 -11.951172 10.256653 -14.951904 16.571167c-3.0007935 6.302704 -4.5011597 12.07428 -4.5011597 17.314743c0 0.074783325 3.6621094E-4 0.14935303 9.765625E-4 0.22372437l0 0c-0.6734009 0.9296875 -1.352478 1.6695251 -2.0372925 2.219452c-1.6900635 1.3573303 -3.5094604 2.0359955 -5.458191 2.0359955c-1.4831543 0 -2.3885498 -0.1003418 -2.7161865 -0.3009796c-0.32769775 -0.20063782 -0.4915161 -0.68455505 -0.4915161 -1.4517517c0 -1.0386505 0.18109131 -2.0241852 0.5432129 -2.956604l12.3133545 -39.781403l-29.67102 0l-11.304504 36.63005c-1.1209717 2.6084137 -2.5006104 4.573593 -4.138916 5.895508c-1.6383667 1.3101196 -3.4318848 1.9651794 -5.3806763 1.9651794c-0.96569824 0 -1.4486084 -0.731781 -1.4486084 -2.1953278c0 -0.8025818 0.1293335 -1.6641998 0.38806152 -2.5848236l12.3133545 -39.710587l-29.671082 0l-11.238464 36.33786l0 0c-2.2593384 4.5502167 -4.618164 7.75766 -7.076538 9.62233c-2.7075806 2.0536804 -4.5010986 3.1808624 -5.380615 3.3815002l15.365845 -49.34169l-29.671082 0l0.19894409 1.644928l0 0c-0.08230591 -0.041259766 -0.16586304 -0.08204651 -0.2506714 -0.12237549c-2.8800354 -1.3809204 -6.8378906 -2.0713806 -11.873596 -2.0713806c-9.485077 0 -17.573273 2.2189178 -24.264557 6.656784c-3.9657898 2.6302338 -7.3349 5.569336 -10.107269 8.817291l0 0c-3.4890747 0.9599304 -6.578186 1.517273 -9.267303 1.6720886l0 0c-0.81796265 -11.71405 -8.684113 -17.571075 -23.598389 -17.571075z" fill-rule="evenodd"/></g></g></svg>